<?xml version="1.0" encoding="UTF-8" standalone="no"?>
<!DOCTYPE svg PUBLIC "-//W3C//DTD SVG 1.1//EN" "http://www.w3.org/Graphics/SVG/1.1/DTD/svg11.dtd">
<svg width="100%" height="100%" viewBox="0 0 500 500" version="1.1" xmlns="http://www.w3.org/2000/svg" xmlns:xlink="http://www.w3.org/1999/xlink" xml:space="preserve" style="fill-rule:evenodd;clip-rule:evenodd;stroke-linejoin:round;stroke-miterlimit:1.41421;">
    <g style="filter:url(#_Effect1);">
        <path d="M525.75,300l-225.5,0c-55.329,0 -100.25,-44.921 -100.25,-100.25l0,-225.5l100,0l0,150.5c0,41.532 33.718,75.25 75.25,75.25l150.5,0l0,100Z" style="fill-opacity:0.701961;"/>
    </g>
    <path d="M525.75,300l-225.5,0c-55.329,0 -100.25,-44.921 -100.25,-100.25l0,-225.5l100,0l0,150.5c0,41.532 33.718,75.25 75.25,75.25l150.5,0l0,100Z" style="fill:#ff6a00;"/>
    <path d="M300,124.75l0,0.243l0.002,0.243l0.001,0.243l0.003,0.243l0.004,0.242l0.004,0.243l0.005,0.242l0.006,0.242l0.006,0.242l0.007,0.241l0.008,0.242l0.009,0.241l0.01,0.241l0.01,0.241l0.011,0.24l0.012,0.241l0.013,0.24l0.013,0.24l0.014,0.24l0.015,0.24l0.015,0.239l0.017,0.239l0.017,0.239l0.018,0.239l0.018,0.239l0.019,0.238l0.021,0.238l0.02,0.238l0.022,0.238l0.022,0.238l0.023,0.237l0.024,0.237l0.024,0.237l0.025,0.237l0.026,0.236l0.027,0.237l0.027,0.236l0.029,0.236l0.058,0.471l0.061,0.47l0.065,0.469l0.067,0.468l0.07,0.467l0.073,0.467l0.075,0.465l0.079,0.465l0.081,0.463l0.084,0.463l0.087,0.461l0.09,0.461l0.093,0.46l0.095,0.458l0.099,0.458l0.101,0.456l0.103,0.456l0.107,0.454l0.109,0.453l0.112,0.453l0.115,0.451l0.117,0.45l0.12,0.449l0.123,0.448l0.126,0.447l0.128,0.445l0.131,0.445l0.133,0.443l0.136,0.443l0.139,0.441l0.142,0.44l0.144,0.439l0.147,0.437l0.149,0.436l0.152,0.436l0.154,0.434l0.157,0.432l0.16,0.432l0.162,0.43l0.165,0.429l0.167,0.428l0.17,0.426l0.172,0.425l0.175,0.424l0.177,0.423l0.18,0.421l0.183,0.42l0.184,0.419l0.188,0.417l0.189,0.416l0.193,0.415l0.194,0.413l0.197,0.412l0.2,0.41l0.202,0.409l0.204,0.408l0.206,0.406l0.21,0.405l0.211,0.404l0.214,0.402l0.216,0.4l0.218,0.399l0.221,0.398l0.223,0.396l0.226,0.395l0.228,0.393l0.23,0.392l0.232,0.39l0.235,0.389l0.237,0.387l0.239,0.385l0.241,0.384l0.244,0.383l0.246,0.381l0.248,0.379l0.25,0.378l0.253,0.376l0.255,0.374l0.257,0.373l0.259,0.372l0.261,0.369l0.263,0.368l0.266,0.367l0.268,0.364l0.27,0.363l0.272,0.362l0.274,0.359l0.276,0.358l0.278,0.357l0.281,0.354l0.282,0.353l0.285,0.351l0.286,0.349l0.289,0.348l0.291,0.346l0.293,0.344l0.294,0.342l0.297,0.341l0.299,0.338l0.301,0.337l0.302,0.335l0.305,0.334l0.307,0.331l0.308,0.33l0.311,0.327l0.313,0.326l0.314,0.324l0.316,0.322l0.319,0.32l0.32,0.319l0.322,0.316l0.324,0.314l0.326,0.313l0.327,0.311l0.33,0.308l0.331,0.307l0.334,0.305l0.335,0.302l0.337,0.301l0.338,0.299l0.341,0.297l0.342,0.294l0.344,0.293l0.346,0.291l0.348,0.289l0.349,0.286l0.351,0.285l0.353,0.282l0.354,0.281l0.357,0.278l0.358,0.276l0.359,0.274l0.362,0.272l0.363,0.27l0.364,0.268l0.367,0.266l0.368,0.263l0.369,0.261l0.372,0.259l0.373,0.257l0.374,0.255l0.376,0.253l0.378,0.25l0.379,0.248l0.381,0.246l0.383,0.244l0.384,0.241l0.385,0.239l0.387,0.237l0.389,0.235l0.39,0.232l0.392,0.23l0.393,0.228l0.395,0.226l0.396,0.223l0.398,0.221l0.399,0.218l0.4,0.216l0.402,0.214l0.404,0.211l0.405,0.21l0.406,0.206l0.408,0.204l0.409,0.202l0.41,0.2l0.412,0.197l0.413,0.194l0.415,0.193l0.416,0.189l0.417,0.188l0.419,0.184l0.42,0.183l0.421,0.18l0.423,0.177l0.424,0.175l0.425,0.172l0.426,0.17l0.428,0.167l0.429,0.165l0.43,0.162l0.432,0.16l0.432,0.157l0.434,0.154l0.436,0.152l0.436,0.149l0.437,0.147l0.439,0.144l0.44,0.142l0.441,0.139l0.443,0.136l0.443,0.133l0.445,0.131l0.445,0.128l0.447,0.126l0.448,0.123l0.449,0.12l0.45,0.117l0.451,0.115l0.453,0.112l0.453,0.109l0.454,0.107l0.456,0.103l0.456,0.101l0.458,0.099l0.458,0.095l0.46,0.093l0.461,0.09l0.461,0.087l0.463,0.084l0.463,0.081l0.465,0.079l0.465,0.075l0.467,0.073l0.467,0.07l0.468,0.067l0.469,0.065l0.47,0.061l0.471,0.058l0.236,0.029l0.236,0.027l0.237,0.027l0.236,0.026l0.237,0.025l0.237,0.024l0.237,0.024l0.237,0.023l0.238,0.022l0.238,0.022l0.238,0.02l0.238,0.021l0.238,0.019l0.239,0.018l0.239,0.018l0.239,0.017l0.239,0.017l0.239,0.015l0.24,0.015l0.24,0.014l0.24,0.013l0.24,0.013l0.241,0.012l0.24,0.011l0.241,0.01l0.241,0.01l0.241,0.009l0.242,0.008l0.241,0.007l0.242,0.006l0.242,0.006l0.242,0.005l0.243,0.004l0.242,0.004l0.243,0.003l0.243,0.001l0.243,0.002l0.243,0l150.5,0l0,100l-225.5,0l-0.324,-0.001l-0.324,-0.001l-0.324,-0.003l-0.323,-0.003l-0.323,-0.005l-0.323,-0.005l-0.322,-0.007l-0.323,-0.008l-0.322,-0.008l-0.322,-0.01l-0.321,-0.011l-0.322,-0.012l-0.321,-0.012l-0.321,-0.014l-0.32,-0.015l-0.321,-0.016l-0.32,-0.016l-0.319,-0.018l-0.32,-0.019l-0.319,-0.02l-0.319,-0.02l-0.319,-0.022l-0.318,-0.023l-0.319,-0.024l-0.317,-0.024l-0.318,-0.026l-0.317,-0.027l-0.317,-0.027l-0.317,-0.029l-0.317,-0.03l-0.316,-0.03l-0.316,-0.032l-0.316,-0.033l-0.315,-0.033l-0.315,-0.035l-0.315,-0.035l-0.314,-0.037l-0.314,-0.037l-0.314,-0.039l-0.314,-0.039l-0.313,-0.04l-0.313,-0.042l-0.313,-0.042l-0.312,-0.043l-0.312,-0.045l-0.312,-0.045l-0.311,-0.046l-0.312,-0.047l-0.31,-0.048l-0.311,-0.049l-0.31,-0.05l-0.31,-0.051l-0.31,-0.052l-0.309,-0.053l-0.309,-0.053l-0.308,-0.055l-0.309,-0.056l-0.307,-0.056l-0.308,-0.058l-0.307,-0.058l-0.307,-0.06l-0.307,-0.06l-0.306,-0.061l-0.306,-0.062l-0.306,-0.063l-0.305,-0.064l-0.305,-0.065l-0.305,-0.066l-0.304,-0.067l-0.304,-0.068l-0.303,-0.068l-0.304,-0.07l-0.302,-0.07l-0.303,-0.072l-0.302,-0.072l-0.302,-0.073l-0.301,-0.075l-0.302,-0.075l-0.3,-0.076l-0.301,-0.076l-0.3,-0.078l-0.299,-0.079l-0.3,-0.079l-0.299,-0.081l-0.298,-0.081l-0.298,-0.083l-0.298,-0.083l-0.298,-0.084l-0.297,-0.085l-0.296,-0.086l-0.297,-0.086l-0.296,-0.088l-0.295,-0.088l-0.295,-0.09l-0.295,-0.09l-0.295,-0.091l-0.294,-0.092l-0.293,-0.093l-0.293,-0.094l-0.293,-0.095l-0.293,-0.095l-0.292,-0.097l-0.291,-0.097l-0.292,-0.098l-0.291,-0.099l-0.29,-0.1l-0.29,-0.101l-0.29,-0.101l-0.289,-0.103l-0.289,-0.103l-0.288,-0.104l-0.288,-0.105l-0.288,-0.106l-0.287,-0.107l-0.287,-0.108l-0.287,-0.108l-0.285,-0.109l-0.286,-0.11l-0.285,-0.112l-0.285,-0.111l-0.284,-0.113l-0.284,-0.114l-0.283,-0.114l-0.283,-0.115l-0.283,-0.116l-0.282,-0.117l-0.282,-0.118l-0.281,-0.118l-0.281,-0.12l-0.28,-0.12l-0.28,-0.121l-0.28,-0.122l-0.279,-0.123l-0.279,-0.123l-0.278,-0.124l-0.278,-0.126l-0.277,-0.125l-0.277,-0.127l-0.276,-0.128l-0.276,-0.128l-0.276,-0.13l-0.275,-0.13l-0.274,-0.13l-0.274,-0.132l-0.274,-0.133l-0.273,-0.133l-0.273,-0.134l-0.272,-0.135l-0.272,-0.135l-0.271,-0.137l-0.271,-0.137l-0.271,-0.138l-0.27,-0.139l-0.269,-0.14l-0.269,-0.14l-0.268,-0.141l-0.269,-0.142l-0.267,-0.143l-0.267,-0.144l-0.267,-0.144l-0.266,-0.145l-0.265,-0.146l-0.265,-0.147l-0.265,-0.147l-0.264,-0.149l-0.264,-0.149l-0.263,-0.149l-0.263,-0.151l-0.262,-0.151l-0.261,-0.152l-0.262,-0.153l-0.26,-0.154l-0.26,-0.154l-0.26,-0.156l-0.259,-0.155l-0.259,-0.157l-0.258,-0.158l-0.258,-0.158l-0.257,-0.159l-0.256,-0.159l-0.256,-0.161l-0.256,-0.161l-0.255,-0.162l-0.254,-0.163l-0.254,-0.163l-0.254,-0.164l-0.253,-0.165l-0.252,-0.166l-0.252,-0.166l-0.251,-0.167l-0.251,-0.168l-0.25,-0.169l-0.25,-0.169l-0.249,-0.17l-0.249,-0.171l-0.248,-0.172l-0.248,-0.172l-0.247,-0.173l-0.246,-0.174l-0.246,-0.174l-0.246,-0.175l-0.245,-0.176l-0.244,-0.176l-0.244,-0.178l-0.243,-0.178l-0.243,-0.178l-0.242,-0.18l-0.241,-0.18l-0.241,-0.181l-0.241,-0.181l-0.24,-0.183l-0.239,-0.183l-0.239,-0.183l-0.238,-0.185l-0.237,-0.185l-0.237,-0.185l-0.237,-0.187l-0.236,-0.187l-0.235,-0.188l-0.235,-0.188l-0.234,-0.189l-0.234,-0.19l-0.233,-0.191l-0.232,-0.191l-0.232,-0.192l-0.231,-0.193l-0.231,-0.193l-0.23,-0.194l-0.229,-0.195l-0.229,-0.195l-0.228,-0.196l-0.228,-0.197l-0.227,-0.197l-0.227,-0.198l-0.226,-0.199l-0.225,-0.199l-0.225,-0.2l-0.224,-0.201l-0.223,-0.201l-0.223,-0.202l-0.222,-0.203l-0.222,-0.203l-0.221,-0.204l-0.221,-0.205l-0.219,-0.205l-0.22,-0.206l-0.218,-0.206l-0.218,-0.208l-0.218,-0.207l-0.216,-0.209l-0.216,-0.209l-0.216,-0.21l-0.215,-0.21l-0.214,-0.211l-0.214,-0.212l-0.213,-0.212l-0.212,-0.213l-0.212,-0.214l-0.211,-0.214l-0.21,-0.215l-0.21,-0.216l-0.209,-0.216l-0.209,-0.216l-0.207,-0.218l-0.208,-0.218l-0.206,-0.218l-0.206,-0.22l-0.205,-0.219l-0.205,-0.221l-0.204,-0.221l-0.203,-0.222l-0.203,-0.222l-0.202,-0.223l-0.201,-0.223l-0.201,-0.224l-0.2,-0.225l-0.199,-0.225l-0.199,-0.226l-0.198,-0.227l-0.197,-0.227l-0.197,-0.228l-0.196,-0.228l-0.195,-0.229l-0.195,-0.229l-0.194,-0.23l-0.193,-0.231l-0.193,-0.231l-0.192,-0.232l-0.191,-0.232l-0.191,-0.233l-0.19,-0.234l-0.189,-0.234l-0.188,-0.235l-0.188,-0.235l-0.187,-0.236l-0.187,-0.237l-0.185,-0.237l-0.185,-0.237l-0.185,-0.238l-0.183,-0.239l-0.183,-0.239l-0.183,-0.24l-0.181,-0.241l-0.181,-0.241l-0.18,-0.241l-0.18,-0.242l-0.178,-0.243l-0.178,-0.243l-0.178,-0.244l-0.176,-0.244l-0.176,-0.245l-0.175,-0.246l-0.174,-0.246l-0.174,-0.246l-0.173,-0.247l-0.172,-0.248l-0.172,-0.248l-0.171,-0.249l-0.17,-0.249l-0.169,-0.25l-0.169,-0.25l-0.168,-0.251l-0.167,-0.251l-0.166,-0.252l-0.166,-0.252l-0.165,-0.253l-0.164,-0.254l-0.163,-0.254l-0.163,-0.254l-0.162,-0.255l-0.161,-0.256l-0.161,-0.256l-0.159,-0.256l-0.159,-0.257l-0.158,-0.258l-0.158,-0.258l-0.157,-0.259l-0.155,-0.259l-0.156,-0.26l-0.154,-0.26l-0.154,-0.26l-0.153,-0.262l-0.152,-0.261l-0.151,-0.262l-0.151,-0.263l-0.149,-0.263l-0.149,-0.264l-0.149,-0.264l-0.147,-0.265l-0.147,-0.265l-0.146,-0.265l-0.145,-0.266l-0.144,-0.267l-0.144,-0.267l-0.143,-0.267l-0.142,-0.269l-0.141,-0.268l-0.14,-0.269l-0.14,-0.269l-0.139,-0.27l-0.138,-0.271l-0.137,-0.271l-0.137,-0.271l-0.135,-0.272l-0.135,-0.272l-0.134,-0.273l-0.133,-0.273l-0.133,-0.274l-0.132,-0.274l-0.13,-0.274l-0.13,-0.275l-0.13,-0.276l-0.128,-0.276l-0.128,-0.276l-0.127,-0.277l-0.125,-0.277l-0.126,-0.278l-0.124,-0.278l-0.123,-0.279l-0.123,-0.279l-0.122,-0.28l-0.121,-0.28l-0.12,-0.28l-0.12,-0.281l-0.118,-0.281l-0.118,-0.282l-0.117,-0.282l-0.116,-0.283l-0.115,-0.283l-0.114,-0.283l-0.114,-0.284l-0.113,-0.284l-0.111,-0.285l-0.112,-0.285l-0.11,-0.286l-0.109,-0.285l-0.108,-0.287l-0.108,-0.287l-0.107,-0.287l-0.106,-0.288l-0.105,-0.288l-0.104,-0.288l-0.103,-0.289l-0.103,-0.289l-0.101,-0.29l-0.101,-0.29l-0.1,-0.29l-0.099,-0.291l-0.098,-0.292l-0.097,-0.291l-0.097,-0.292l-0.095,-0.293l-0.095,-0.293l-0.094,-0.293l-0.093,-0.293l-0.092,-0.294l-0.091,-0.295l-0.09,-0.295l-0.09,-0.295l-0.088,-0.295l-0.088,-0.296l-0.086,-0.297l-0.086,-0.296l-0.085,-0.297l-0.084,-0.298l-0.083,-0.298l-0.083,-0.298l-0.081,-0.298l-0.081,-0.299l-0.079,-0.3l-0.079,-0.299l-0.078,-0.3l-0.076,-0.301l-0.076,-0.3l-0.075,-0.302l-0.075,-0.301l-0.073,-0.302l-0.072,-0.302l-0.072,-0.303l-0.07,-0.302l-0.07,-0.304l-0.068,-0.303l-0.068,-0.304l-0.067,-0.304l-0.066,-0.305l-0.065,-0.305l-0.064,-0.305l-0.063,-0.306l-0.062,-0.306l-0.061,-0.306l-0.06,-0.307l-0.06,-0.307l-0.058,-0.307l-0.058,-0.308l-0.056,-0.307l-0.056,-0.309l-0.055,-0.308l-0.053,-0.309l-0.053,-0.309l-0.052,-0.31l-0.051,-0.31l-0.05,-0.31l-0.049,-0.311l-0.048,-0.31l-0.047,-0.312l-0.046,-0.311l-0.045,-0.312l-0.045,-0.312l-0.043,-0.312l-0.042,-0.313l-0.042,-0.313l-0.04,-0.313l-0.039,-0.314l-0.039,-0.314l-0.037,-0.314l-0.037,-0.314l-0.035,-0.315l-0.035,-0.315l-0.033,-0.315l-0.033,-0.316l-0.032,-0.316l-0.03,-0.316l-0.03,-0.317l-0.029,-0.317l-0.027,-0.317l-0.027,-0.317l-0.026,-0.318l-0.024,-0.317l-0.024,-0.319l-0.023,-0.318l-0.022,-0.319l-0.02,-0.319l-0.02,-0.319l-0.019,-0.32l-0.018,-0.319l-0.016,-0.32l-0.016,-0.321l-0.015,-0.32l-0.014,-0.321l-0.012,-0.321l-0.012,-0.322l-0.011,-0.321l-0.01,-0.322l-0.008,-0.322l-0.008,-0.323l-0.007,-0.322l-0.005,-0.323l-0.005,-0.323l-0.003,-0.323l-0.003,-0.324l-0.001,-0.324l-0.001,-0.324l0,-225.5l100,0l0,150.5Zm-95,-145.5l0,220.496l0,0.312l0.002,0.308l0.002,0.308l0.004,0.307l0.004,0.308l0.006,0.307l0.006,0.306l0.007,0.307l0.008,0.306l0.01,0.306l0.01,0.306l0.011,0.306l0.012,0.305l0.013,0.305l0.014,0.305l0.015,0.304l0.016,0.304l0.017,0.304l0.018,0.304l0.019,0.304l0.019,0.303l0.021,0.303l0.022,0.302l0.022,0.303l0.024,0.302l0.024,0.302l0.025,0.301l0.027,0.302l0.027,0.301l0.028,0.3l0.029,0.301l0.03,0.3l0.031,0.3l0.032,0.3l0.033,0.299l0.034,0.299l0.035,0.299l0.035,0.298l0.037,0.299l0.037,0.297l0.038,0.298l0.04,0.297l0.04,0.298l0.041,0.296l0.042,0.297l0.043,0.296l0.044,0.296l0.045,0.295l0.045,0.296l0.047,0.295l0.047,0.294l0.048,0.295l0.05,0.294l0.05,0.294l0.051,0.293l0.052,0.293l0.053,0.293l0.053,0.292l0.055,0.293l0.056,0.291l0.056,0.292l0.057,0.291l0.058,0.291l0.06,0.291l0.059,0.29l0.061,0.29l0.062,0.29l0.063,0.289l0.063,0.289l0.064,0.289l0.066,0.288l0.066,0.288l0.067,0.287l0.067,0.288l0.069,0.287l0.07,0.286l0.07,0.287l0.071,0.286l0.072,0.285l0.073,0.286l0.074,0.285l0.075,0.284l0.076,0.284l0.076,0.284l0.077,0.284l0.078,0.283l0.079,0.283l0.08,0.282l0.081,0.282l0.081,0.282l0.083,0.282l0.083,0.281l0.084,0.28l0.085,0.281l0.086,0.28l0.086,0.279l0.088,0.28l0.088,0.278l0.089,0.279l0.09,0.278l0.091,0.278l0.091,0.277l0.093,0.277l0.093,0.277l0.094,0.276l0.095,0.276l0.095,0.275l0.097,0.276l0.097,0.274l0.098,0.275l0.099,0.274l0.1,0.273l0.101,0.273l0.101,0.273l0.102,0.272l0.103,0.273l0.104,0.271l0.105,0.271l0.105,0.271l0.106,0.27l0.107,0.27l0.108,0.27l0.109,0.269l0.109,0.269l0.11,0.268l0.112,0.269l0.111,0.267l0.113,0.267l0.113,0.267l0.114,0.266l0.115,0.266l0.116,0.266l0.117,0.265l0.117,0.264l0.118,0.265l0.119,0.264l0.12,0.263l0.12,0.263l0.121,0.262l0.122,0.263l0.123,0.261l0.124,0.262l0.124,0.26l0.125,0.261l0.126,0.26l0.126,0.259l0.128,0.259l0.128,0.259l0.129,0.258l0.129,0.258l0.131,0.257l0.131,0.257l0.132,0.257l0.132,0.256l0.134,0.255l0.134,0.255l0.135,0.255l0.136,0.254l0.136,0.254l0.137,0.253l0.138,0.253l0.139,0.252l0.139,0.252l0.14,0.251l0.141,0.251l0.142,0.251l0.142,0.25l0.143,0.249l0.144,0.249l0.144,0.249l0.146,0.248l0.146,0.248l0.146,0.247l0.148,0.247l0.148,0.246l0.149,0.246l0.149,0.245l0.151,0.245l0.151,0.244l0.151,0.244l0.153,0.243l0.153,0.243l0.154,0.242l0.154,0.242l0.156,0.241l0.156,0.241l0.156,0.241l0.158,0.239l0.158,0.24l0.159,0.238l0.159,0.239l0.161,0.238l0.161,0.237l0.161,0.237l0.162,0.236l0.163,0.236l0.164,0.235l0.164,0.235l0.165,0.234l0.166,0.234l0.167,0.233l0.167,0.233l0.168,0.232l0.168,0.232l0.169,0.231l0.17,0.231l0.171,0.23l0.171,0.229l0.172,0.229l0.172,0.229l0.173,0.228l0.174,0.227l0.175,0.227l0.175,0.226l0.176,0.226l0.176,0.225l0.178,0.225l0.177,0.224l0.179,0.224l0.179,0.223l0.18,0.223l0.18,0.222l0.182,0.221l0.181,0.221l0.183,0.22l0.183,0.22l0.183,0.219l0.185,0.219l0.185,0.218l0.185,0.218l0.187,0.217l0.187,0.216l0.187,0.216l0.189,0.215l0.188,0.215l0.19,0.214l0.19,0.214l0.191,0.213l0.191,0.212l0.192,0.212l0.193,0.211l0.193,0.211l0.194,0.21l0.194,0.21l0.195,0.209l0.196,0.208l0.196,0.208l0.197,0.207l0.198,0.206l0.198,0.206l0.199,0.206l0.199,0.205l0.2,0.204l0.201,0.204l0.201,0.203l0.202,0.202l0.202,0.202l0.204,0.201l0.203,0.201l0.204,0.2l0.205,0.199l0.206,0.199l0.206,0.198l0.206,0.198l0.207,0.197l0.208,0.196l0.208,0.196l0.209,0.195l0.21,0.194l0.21,0.194l0.211,0.193l0.211,0.193l0.212,0.192l0.212,0.191l0.213,0.191l0.214,0.19l0.214,0.19l0.215,0.188l0.215,0.189l0.216,0.187l0.216,0.187l0.217,0.186l0.218,0.186l0.218,0.185l0.219,0.185l0.219,0.183l0.22,0.183l0.22,0.183l0.221,0.182l0.221,0.181l0.222,0.18l0.223,0.18l0.223,0.179l0.224,0.179l0.224,0.177l0.224,0.178l0.226,0.176l0.226,0.176l0.226,0.175l0.227,0.175l0.227,0.174l0.228,0.173l0.229,0.172l0.229,0.172l0.229,0.171l0.23,0.171l0.231,0.17l0.231,0.169l0.232,0.168l0.232,0.168l0.233,0.167l0.233,0.167l0.234,0.165l0.234,0.166l0.235,0.164l0.235,0.164l0.236,0.163l0.236,0.162l0.237,0.162l0.237,0.16l0.238,0.161l0.239,0.159l0.238,0.159l0.24,0.158l0.24,0.158l0.24,0.156l0.241,0.156l0.241,0.156l0.242,0.154l0.242,0.154l0.243,0.153l0.243,0.153l0.244,0.151l0.244,0.151l0.245,0.151l0.245,0.149l0.246,0.149l0.246,0.148l0.247,0.148l0.247,0.146l0.248,0.146l0.248,0.146l0.249,0.144l0.249,0.144l0.249,0.143l0.25,0.142l0.251,0.142l0.25,0.141l0.252,0.14l0.252,0.139l0.252,0.139l0.253,0.138l0.253,0.137l0.254,0.136l0.254,0.136l0.255,0.135l0.255,0.134l0.255,0.134l0.256,0.132l0.257,0.132l0.257,0.131l0.257,0.131l0.258,0.129l0.258,0.129l0.259,0.128l0.259,0.128l0.259,0.126l0.26,0.126l0.261,0.125l0.26,0.125l0.262,0.123l0.261,0.123l0.262,0.122l0.263,0.121l0.263,0.12l0.263,0.12l0.264,0.119l0.264,0.118l0.265,0.117l0.265,0.117l0.266,0.116l0.266,0.115l0.266,0.114l0.267,0.113l0.267,0.113l0.267,0.111l0.269,0.112l0.268,0.11l0.269,0.109l0.269,0.109l0.27,0.108l0.27,0.107l0.27,0.106l0.271,0.105l0.271,0.105l0.272,0.104l0.272,0.103l0.272,0.102l0.273,0.101l0.273,0.101l0.274,0.1l0.273,0.099l0.275,0.098l0.274,0.097l0.276,0.097l0.275,0.095l0.276,0.095l0.276,0.094l0.277,0.093l0.277,0.093l0.277,0.091l0.278,0.091l0.278,0.09l0.278,0.089l0.279,0.088l0.28,0.088l0.279,0.086l0.28,0.086l0.281,0.085l0.28,0.084l0.281,0.083l0.282,0.083l0.282,0.081l0.282,0.081l0.282,0.08l0.283,0.079l0.283,0.078l0.284,0.077l0.284,0.076l0.284,0.076l0.284,0.075l0.285,0.074l0.286,0.073l0.285,0.072l0.286,0.071l0.287,0.07l0.286,0.07l0.287,0.069l0.287,0.067l0.288,0.067l0.288,0.067l0.288,0.065l0.289,0.064l0.289,0.063l0.289,0.063l0.29,0.062l0.29,0.061l0.29,0.059l0.291,0.06l0.291,0.058l0.291,0.057l0.292,0.056l0.292,0.056l0.292,0.055l0.292,0.053l0.293,0.053l0.293,0.052l0.293,0.051l0.294,0.05l0.294,0.049l0.295,0.049l0.294,0.047l0.295,0.047l0.296,0.045l0.295,0.045l0.296,0.044l0.296,0.043l0.297,0.042l0.296,0.041l0.298,0.04l0.297,0.04l0.297,0.038l0.298,0.037l0.299,0.037l0.298,0.036l0.299,0.034l0.299,0.034l0.299,0.033l0.3,0.032l0.3,0.031l0.3,0.03l0.301,0.029l0.3,0.028l0.301,0.027l0.302,0.027l0.301,0.025l0.302,0.024l0.302,0.024l0.303,0.022l0.302,0.022l0.303,0.021l0.304,0.019l0.303,0.019l0.304,0.018l0.304,0.017l0.304,0.016l0.304,0.015l0.305,0.014l0.305,0.013l0.305,0.012l0.306,0.011l0.306,0.01l0.306,0.01l0.306,0.008l0.306,0.007l0.307,0.006l0.307,0.006l0.308,0.004l0.307,0.004l0.308,0.002l0.308,0.002l0.312,0l220.496,0l0,-90l-145.504,0l-0.255,0l-0.259,-0.002l-0.259,-0.002l-0.258,-0.003l-0.259,-0.003l-0.258,-0.005l-0.258,-0.005l-0.258,-0.006l-0.257,-0.007l-0.258,-0.008l-0.257,-0.008l-0.257,-0.01l-0.257,-0.01l-0.257,-0.011l-0.256,-0.012l-0.256,-0.012l-0.256,-0.014l-0.256,-0.014l-0.256,-0.015l-0.255,-0.016l-0.256,-0.016l-0.255,-0.018l-0.254,-0.018l-0.255,-0.019l-0.255,-0.02l-0.254,-0.02l-0.254,-0.022l-0.253,-0.022l-0.254,-0.023l-0.253,-0.024l-0.253,-0.024l-0.253,-0.025l-0.253,-0.027l-0.252,-0.026l-0.252,-0.028l-0.252,-0.029l-0.252,-0.029l-0.255,-0.03l-0.499,-0.062l-0.501,-0.065l-0.501,-0.069l-0.499,-0.072l-0.499,-0.074l-0.497,-0.078l-0.496,-0.081l-0.496,-0.083l-0.494,-0.087l-0.494,-0.09l-0.492,-0.093l-0.492,-0.096l-0.49,-0.099l-0.489,-0.101l-0.488,-0.105l-0.487,-0.108l-0.486,-0.111l-0.485,-0.113l-0.484,-0.117l-0.482,-0.119l-0.482,-0.123l-0.48,-0.125l-0.479,-0.128l-0.478,-0.131l-0.477,-0.134l-0.476,-0.137l-0.474,-0.14l-0.473,-0.142l-0.472,-0.145l-0.471,-0.149l-0.469,-0.151l-0.468,-0.153l-0.467,-0.157l-0.466,-0.159l-0.464,-0.162l-0.463,-0.165l-0.462,-0.168l-0.46,-0.17l-0.459,-0.173l-0.458,-0.176l-0.456,-0.178l-0.455,-0.181l-0.454,-0.184l-0.452,-0.187l-0.451,-0.189l-0.449,-0.192l-0.448,-0.194l-0.447,-0.197l-0.445,-0.2l-0.444,-0.203l-0.442,-0.205l-0.441,-0.207l-0.439,-0.21l-0.438,-0.213l-0.437,-0.215l-0.435,-0.218l-0.433,-0.221l-0.432,-0.223l-0.43,-0.225l-0.429,-0.228l-0.427,-0.231l-0.426,-0.233l-0.424,-0.235l-0.422,-0.238l-0.421,-0.241l-0.42,-0.243l-0.417,-0.245l-0.416,-0.248l-0.415,-0.25l-0.413,-0.253l-0.411,-0.255l-0.409,-0.257l-0.408,-0.26l-0.406,-0.262l-0.405,-0.265l-0.402,-0.267l-0.401,-0.269l-0.4,-0.272l-0.397,-0.274l-0.396,-0.276l-0.394,-0.279l-0.393,-0.281l-0.39,-0.283l-0.389,-0.285l-0.387,-0.288l-0.386,-0.29l-0.383,-0.292l-0.382,-0.295l-0.38,-0.296l-0.377,-0.299l-0.377,-0.301l-0.374,-0.304l-0.372,-0.305l-0.371,-0.308l-0.369,-0.31l-0.366,-0.312l-0.365,-0.314l-0.363,-0.317l-0.361,-0.318l-0.359,-0.321l-0.357,-0.322l-0.356,-0.325l-0.353,-0.327l-0.351,-0.329l-0.35,-0.331l-0.347,-0.333l-0.345,-0.336l-0.344,-0.337l-0.341,-0.339l-0.339,-0.341l-0.337,-0.344l-0.336,-0.345l-0.333,-0.347l-0.331,-0.35l-0.329,-0.351l-0.327,-0.353l-0.325,-0.355l-0.322,-0.358l-0.321,-0.359l-0.318,-0.361l-0.317,-0.363l-0.314,-0.365l-0.312,-0.366l-0.31,-0.369l-0.308,-0.371l-0.305,-0.372l-0.304,-0.374l-0.301,-0.377l-0.299,-0.377l-0.296,-0.38l-0.295,-0.382l-0.292,-0.383l-0.29,-0.386l-0.288,-0.387l-0.285,-0.389l-0.283,-0.39l-0.281,-0.393l-0.279,-0.394l-0.276,-0.396l-0.274,-0.397l-0.272,-0.4l-0.269,-0.4l-0.267,-0.403l-0.265,-0.405l-0.262,-0.406l-0.26,-0.408l-0.257,-0.409l-0.255,-0.411l-0.253,-0.413l-0.25,-0.415l-0.248,-0.416l-0.245,-0.418l-0.243,-0.419l-0.241,-0.421l-0.238,-0.422l-0.235,-0.424l-0.233,-0.426l-0.231,-0.427l-0.228,-0.429l-0.225,-0.43l-0.223,-0.432l-0.221,-0.433l-0.218,-0.435l-0.215,-0.437l-0.213,-0.438l-0.21,-0.439l-0.207,-0.441l-0.205,-0.442l-0.203,-0.444l-0.2,-0.445l-0.197,-0.447l-0.194,-0.448l-0.192,-0.449l-0.189,-0.451l-0.187,-0.452l-0.184,-0.454l-0.181,-0.455l-0.178,-0.456l-0.176,-0.458l-0.173,-0.459l-0.17,-0.46l-0.168,-0.462l-0.165,-0.463l-0.162,-0.464l-0.159,-0.466l-0.157,-0.467l-0.153,-0.468l-0.151,-0.469l-0.149,-0.471l-0.145,-0.472l-0.142,-0.473l-0.14,-0.474l-0.137,-0.476l-0.134,-0.477l-0.131,-0.478l-0.128,-0.479l-0.125,-0.48l-0.123,-0.482l-0.119,-0.482l-0.117,-0.484l-0.113,-0.485l-0.111,-0.486l-0.108,-0.487l-0.105,-0.488l-0.101,-0.489l-0.099,-0.49l-0.096,-0.492l-0.093,-0.492l-0.09,-0.493l-0.087,-0.495l-0.083,-0.495l-0.081,-0.497l-0.078,-0.498l-0.074,-0.498l-0.072,-0.499l-0.069,-0.501l-0.065,-0.501l-0.062,-0.499l-0.03,-0.255l-0.029,-0.252l-0.029,-0.252l-0.028,-0.252l-0.026,-0.252l-0.027,-0.253l-0.025,-0.253l-0.024,-0.253l-0.024,-0.253l-0.023,-0.253l-0.022,-0.254l-0.022,-0.254l-0.02,-0.255l-0.02,-0.254l-0.019,-0.255l-0.018,-0.254l-0.018,-0.255l-0.016,-0.255l-0.016,-0.256l-0.015,-0.256l-0.014,-0.256l-0.014,-0.256l-0.012,-0.256l-0.012,-0.256l-0.011,-0.257l-0.01,-0.257l-0.01,-0.257l-0.008,-0.257l-0.008,-0.258l-0.007,-0.257l-0.006,-0.258l-0.005,-0.258l-0.005,-0.258l-0.003,-0.259l-0.003,-0.258l-0.002,-0.259l-0.002,-0.259l0,-0.255l0,-145.504l-90,0Z" style="fill:#803500;"/>
    <defs>
        <filter id="_Effect1" filterUnits="userSpaceOnUse" x="140" y="-85.75" width="445.75" height="445.75">
            <feGaussianBlur in="SourceGraphic" stdDeviation="10"/>
        </filter>
    </defs>
</svg>
