<?xml version="1.0" encoding="UTF-8" standalone="no"?>
<!DOCTYPE svg PUBLIC "-//W3C//DTD SVG 1.1//EN" "http://www.w3.org/Graphics/SVG/1.1/DTD/svg11.dtd">
<svg width="100%" height="100%" viewBox="0 0 500 500" version="1.1" xmlns="http://www.w3.org/2000/svg" xmlns:xlink="http://www.w3.org/1999/xlink" xml:space="preserve" style="fill-rule:evenodd;clip-rule:evenodd;stroke-linejoin:round;stroke-miterlimit:1.41421;">
    <g style="filter:url(#_Effect1);">
        <path d="M200,-25.75l100,0l0,150.5c0,41.532 33.718,75.25 75.25,75.25l150.5,0l0,100l-150.5,0c-41.532,0 -75.25,33.718 -75.25,75.25l0,150.5l-100,0l0,-551.5Z" style="fill-opacity:0.701961;stroke:#0d47a1;stroke-width:1px;"/>
    </g>
    <path d="M200,-25.75l100,0l0,150.5c0,41.532 33.718,75.25 75.25,75.25l150.5,0l0,100l-150.5,0c-41.532,0 -75.25,33.718 -75.25,75.25l0,150.5l-100,0l0,-551.5Z" style="fill:#42a5f5;"/>
    <path d="M300,124.75l0,0.243l0.002,0.243l0.001,0.243l0.003,0.243l0.004,0.242l0.004,0.243l0.005,0.242l0.006,0.242l0.006,0.242l0.007,0.241l0.008,0.242l0.009,0.241l0.01,0.241l0.01,0.241l0.011,0.24l0.012,0.241l0.013,0.24l0.013,0.24l0.014,0.24l0.015,0.24l0.015,0.239l0.017,0.239l0.017,0.239l0.018,0.239l0.018,0.239l0.019,0.238l0.021,0.238l0.02,0.238l0.022,0.238l0.022,0.238l0.023,0.237l0.024,0.237l0.024,0.237l0.025,0.237l0.026,0.236l0.027,0.237l0.027,0.236l0.029,0.236l0.058,0.471l0.061,0.47l0.065,0.469l0.067,0.468l0.07,0.467l0.073,0.467l0.075,0.465l0.079,0.465l0.081,0.463l0.084,0.463l0.087,0.461l0.09,0.461l0.093,0.46l0.095,0.458l0.099,0.458l0.101,0.456l0.103,0.456l0.107,0.454l0.109,0.453l0.112,0.453l0.115,0.451l0.117,0.45l0.12,0.449l0.123,0.448l0.126,0.447l0.128,0.445l0.131,0.445l0.133,0.443l0.136,0.443l0.139,0.441l0.142,0.44l0.144,0.439l0.147,0.437l0.149,0.436l0.152,0.436l0.154,0.434l0.157,0.432l0.16,0.432l0.162,0.43l0.165,0.429l0.167,0.428l0.17,0.426l0.172,0.425l0.175,0.424l0.177,0.423l0.18,0.421l0.183,0.42l0.184,0.419l0.188,0.417l0.189,0.416l0.193,0.415l0.194,0.413l0.197,0.412l0.2,0.41l0.202,0.409l0.204,0.408l0.206,0.406l0.21,0.405l0.211,0.404l0.214,0.402l0.216,0.4l0.218,0.399l0.221,0.398l0.223,0.396l0.226,0.395l0.228,0.393l0.23,0.392l0.232,0.39l0.235,0.389l0.237,0.387l0.239,0.385l0.241,0.384l0.244,0.383l0.246,0.381l0.248,0.379l0.25,0.378l0.253,0.376l0.255,0.374l0.257,0.373l0.259,0.372l0.261,0.369l0.263,0.368l0.266,0.367l0.268,0.364l0.27,0.363l0.272,0.362l0.274,0.359l0.276,0.358l0.278,0.357l0.281,0.354l0.282,0.353l0.285,0.351l0.286,0.349l0.289,0.348l0.291,0.346l0.293,0.344l0.294,0.342l0.297,0.341l0.299,0.338l0.301,0.337l0.302,0.335l0.305,0.334l0.307,0.331l0.308,0.33l0.311,0.327l0.313,0.326l0.314,0.324l0.316,0.322l0.319,0.32l0.32,0.319l0.322,0.316l0.324,0.314l0.326,0.313l0.327,0.311l0.33,0.308l0.331,0.307l0.334,0.305l0.335,0.302l0.337,0.301l0.338,0.299l0.341,0.297l0.342,0.294l0.344,0.293l0.346,0.291l0.348,0.289l0.349,0.286l0.351,0.285l0.353,0.282l0.354,0.281l0.357,0.278l0.358,0.276l0.359,0.274l0.362,0.272l0.363,0.27l0.364,0.268l0.367,0.266l0.368,0.263l0.369,0.261l0.372,0.259l0.373,0.257l0.374,0.255l0.376,0.253l0.378,0.25l0.379,0.248l0.381,0.246l0.383,0.244l0.384,0.241l0.385,0.239l0.387,0.237l0.389,0.235l0.39,0.232l0.392,0.23l0.393,0.228l0.395,0.226l0.396,0.223l0.398,0.221l0.399,0.218l0.4,0.216l0.402,0.214l0.404,0.211l0.405,0.21l0.406,0.206l0.408,0.204l0.409,0.202l0.41,0.2l0.412,0.197l0.413,0.194l0.415,0.193l0.416,0.189l0.417,0.188l0.419,0.184l0.42,0.183l0.421,0.18l0.423,0.177l0.424,0.175l0.425,0.172l0.426,0.17l0.428,0.167l0.429,0.165l0.43,0.162l0.432,0.16l0.432,0.157l0.434,0.154l0.436,0.152l0.436,0.149l0.437,0.147l0.439,0.144l0.44,0.142l0.441,0.139l0.443,0.136l0.443,0.133l0.445,0.131l0.445,0.128l0.447,0.126l0.448,0.123l0.449,0.12l0.45,0.117l0.451,0.115l0.453,0.112l0.453,0.109l0.454,0.107l0.456,0.103l0.456,0.101l0.458,0.099l0.458,0.095l0.46,0.093l0.461,0.09l0.461,0.087l0.463,0.084l0.463,0.081l0.465,0.079l0.465,0.075l0.467,0.073l0.467,0.07l0.468,0.067l0.469,0.065l0.47,0.061l0.471,0.058l0.236,0.029l0.236,0.027l0.237,0.027l0.236,0.026l0.237,0.025l0.237,0.024l0.237,0.024l0.237,0.023l0.238,0.022l0.238,0.022l0.238,0.02l0.238,0.021l0.238,0.019l0.239,0.018l0.239,0.018l0.239,0.017l0.239,0.017l0.239,0.015l0.24,0.015l0.24,0.014l0.24,0.013l0.24,0.013l0.241,0.012l0.24,0.011l0.241,0.01l0.241,0.01l0.241,0.009l0.242,0.008l0.241,0.007l0.242,0.006l0.242,0.006l0.242,0.005l0.243,0.004l0.242,0.004l0.243,0.003l0.243,0.001l0.243,0.002l0.243,0l150.5,0l0,100l-150.5,0l-0.243,0l-0.243,0.002l-0.243,0.001l-0.243,0.003l-0.242,0.004l-0.243,0.004l-0.242,0.005l-0.242,0.006l-0.242,0.006l-0.241,0.007l-0.242,0.008l-0.241,0.009l-0.241,0.01l-0.241,0.01l-0.24,0.011l-0.241,0.012l-0.24,0.013l-0.24,0.013l-0.24,0.014l-0.24,0.015l-0.239,0.015l-0.239,0.017l-0.239,0.017l-0.239,0.018l-0.239,0.018l-0.238,0.019l-0.238,0.021l-0.238,0.02l-0.238,0.022l-0.238,0.022l-0.237,0.023l-0.237,0.024l-0.237,0.024l-0.237,0.025l-0.236,0.026l-0.237,0.027l-0.236,0.027l-0.236,0.029l-0.471,0.058l-0.47,0.061l-0.469,0.065l-0.468,0.067l-0.467,0.07l-0.467,0.073l-0.465,0.075l-0.465,0.079l-0.463,0.081l-0.463,0.084l-0.461,0.087l-0.461,0.09l-0.46,0.093l-0.458,0.095l-0.458,0.099l-0.456,0.101l-0.456,0.103l-0.454,0.107l-0.453,0.109l-0.453,0.112l-0.451,0.115l-0.45,0.117l-0.449,0.12l-0.448,0.123l-0.447,0.126l-0.445,0.128l-0.445,0.131l-0.443,0.133l-0.443,0.136l-0.441,0.139l-0.44,0.142l-0.439,0.144l-0.437,0.147l-0.436,0.149l-0.436,0.152l-0.434,0.154l-0.432,0.157l-0.432,0.16l-0.43,0.162l-0.429,0.165l-0.428,0.167l-0.426,0.17l-0.425,0.172l-0.424,0.175l-0.423,0.177l-0.421,0.18l-0.42,0.183l-0.419,0.184l-0.417,0.188l-0.416,0.189l-0.415,0.193l-0.413,0.194l-0.412,0.197l-0.41,0.2l-0.409,0.202l-0.408,0.204l-0.406,0.206l-0.405,0.21l-0.404,0.211l-0.402,0.214l-0.4,0.216l-0.399,0.218l-0.398,0.221l-0.396,0.223l-0.395,0.226l-0.393,0.228l-0.392,0.23l-0.39,0.232l-0.389,0.235l-0.387,0.237l-0.385,0.239l-0.384,0.241l-0.383,0.244l-0.381,0.246l-0.379,0.248l-0.378,0.25l-0.376,0.253l-0.374,0.255l-0.373,0.257l-0.372,0.259l-0.369,0.261l-0.368,0.263l-0.367,0.266l-0.364,0.268l-0.363,0.27l-0.362,0.272l-0.359,0.274l-0.358,0.276l-0.357,0.278l-0.354,0.281l-0.353,0.282l-0.351,0.285l-0.349,0.286l-0.348,0.289l-0.346,0.291l-0.344,0.293l-0.342,0.294l-0.341,0.297l-0.338,0.299l-0.337,0.301l-0.335,0.302l-0.334,0.305l-0.331,0.307l-0.33,0.308l-0.327,0.311l-0.326,0.313l-0.324,0.314l-0.322,0.316l-0.32,0.319l-0.319,0.32l-0.316,0.322l-0.314,0.324l-0.313,0.326l-0.311,0.327l-0.308,0.33l-0.307,0.331l-0.305,0.334l-0.302,0.335l-0.301,0.337l-0.299,0.338l-0.297,0.341l-0.294,0.342l-0.293,0.344l-0.291,0.346l-0.289,0.348l-0.286,0.349l-0.285,0.351l-0.282,0.353l-0.281,0.354l-0.278,0.357l-0.276,0.358l-0.274,0.359l-0.272,0.362l-0.27,0.363l-0.268,0.364l-0.266,0.367l-0.263,0.368l-0.261,0.369l-0.259,0.372l-0.257,0.373l-0.255,0.374l-0.253,0.376l-0.25,0.378l-0.248,0.379l-0.246,0.381l-0.244,0.383l-0.241,0.384l-0.239,0.385l-0.237,0.387l-0.235,0.389l-0.232,0.39l-0.23,0.392l-0.228,0.393l-0.226,0.395l-0.223,0.396l-0.221,0.398l-0.218,0.399l-0.216,0.4l-0.214,0.402l-0.211,0.404l-0.21,0.405l-0.206,0.406l-0.204,0.408l-0.202,0.409l-0.2,0.41l-0.197,0.412l-0.194,0.413l-0.193,0.415l-0.189,0.416l-0.188,0.417l-0.184,0.419l-0.183,0.42l-0.18,0.421l-0.177,0.423l-0.175,0.424l-0.172,0.425l-0.17,0.426l-0.167,0.428l-0.165,0.429l-0.162,0.43l-0.16,0.432l-0.157,0.432l-0.154,0.434l-0.152,0.436l-0.149,0.436l-0.147,0.437l-0.144,0.439l-0.142,0.44l-0.139,0.441l-0.136,0.443l-0.133,0.443l-0.131,0.445l-0.128,0.445l-0.126,0.447l-0.123,0.448l-0.12,0.449l-0.117,0.45l-0.115,0.451l-0.112,0.453l-0.109,0.453l-0.107,0.454l-0.103,0.456l-0.101,0.456l-0.099,0.458l-0.095,0.458l-0.093,0.46l-0.09,0.461l-0.087,0.461l-0.084,0.463l-0.081,0.463l-0.079,0.465l-0.075,0.465l-0.073,0.467l-0.07,0.467l-0.067,0.468l-0.065,0.469l-0.061,0.47l-0.058,0.471l-0.029,0.236l-0.027,0.236l-0.027,0.237l-0.026,0.236l-0.025,0.237l-0.024,0.237l-0.024,0.237l-0.023,0.237l-0.022,0.238l-0.022,0.238l-0.02,0.238l-0.021,0.238l-0.019,0.238l-0.018,0.239l-0.018,0.239l-0.017,0.239l-0.017,0.239l-0.015,0.239l-0.015,0.24l-0.014,0.24l-0.013,0.24l-0.013,0.24l-0.012,0.241l-0.011,0.24l-0.01,0.241l-0.01,0.241l-0.009,0.241l-0.008,0.242l-0.007,0.241l-0.006,0.242l-0.006,0.242l-0.005,0.242l-0.004,0.243l-0.004,0.242l-0.003,0.243l-0.001,0.243l-0.002,0.243l0,0.243l0,150.5l-100,0l0,-551.5l100,0l0,150.5Zm-95,-145.5l0,541.5l90,0l0,-145.504l0,-0.255l0.002,-0.259l0.002,-0.259l0.003,-0.258l0.003,-0.259l0.005,-0.258l0.005,-0.258l0.006,-0.258l0.007,-0.257l0.008,-0.258l0.008,-0.257l0.01,-0.257l0.01,-0.257l0.011,-0.257l0.012,-0.256l0.012,-0.256l0.014,-0.256l0.014,-0.256l0.015,-0.256l0.016,-0.256l0.016,-0.255l0.018,-0.255l0.018,-0.254l0.019,-0.255l0.02,-0.254l0.02,-0.255l0.022,-0.254l0.022,-0.254l0.023,-0.253l0.024,-0.253l0.024,-0.253l0.025,-0.253l0.027,-0.253l0.026,-0.252l0.028,-0.252l0.029,-0.252l0.029,-0.252l0.03,-0.255l0.062,-0.499l0.065,-0.501l0.069,-0.501l0.072,-0.499l0.074,-0.498l0.078,-0.498l0.081,-0.497l0.083,-0.495l0.087,-0.494l0.09,-0.494l0.093,-0.492l0.096,-0.492l0.099,-0.49l0.101,-0.489l0.105,-0.488l0.108,-0.487l0.111,-0.486l0.113,-0.485l0.117,-0.484l0.119,-0.482l0.123,-0.482l0.125,-0.48l0.128,-0.479l0.131,-0.478l0.134,-0.477l0.137,-0.476l0.14,-0.474l0.142,-0.473l0.145,-0.472l0.149,-0.471l0.151,-0.469l0.153,-0.468l0.157,-0.467l0.159,-0.466l0.162,-0.464l0.165,-0.463l0.168,-0.462l0.17,-0.46l0.173,-0.459l0.176,-0.458l0.178,-0.456l0.181,-0.455l0.184,-0.454l0.187,-0.452l0.189,-0.451l0.192,-0.449l0.194,-0.448l0.197,-0.447l0.2,-0.445l0.203,-0.444l0.205,-0.442l0.207,-0.441l0.21,-0.439l0.213,-0.438l0.215,-0.437l0.218,-0.435l0.221,-0.433l0.223,-0.432l0.225,-0.43l0.228,-0.429l0.231,-0.427l0.233,-0.426l0.235,-0.424l0.238,-0.422l0.241,-0.421l0.243,-0.42l0.245,-0.417l0.248,-0.416l0.25,-0.415l0.253,-0.413l0.255,-0.411l0.257,-0.409l0.26,-0.408l0.262,-0.406l0.265,-0.405l0.267,-0.402l0.269,-0.401l0.272,-0.4l0.274,-0.398l0.276,-0.395l0.279,-0.394l0.28,-0.393l0.284,-0.39l0.285,-0.389l0.288,-0.387l0.29,-0.386l0.292,-0.383l0.295,-0.382l0.296,-0.38l0.299,-0.377l0.301,-0.377l0.304,-0.374l0.305,-0.372l0.308,-0.371l0.31,-0.369l0.312,-0.366l0.314,-0.365l0.317,-0.363l0.318,-0.361l0.321,-0.359l0.322,-0.358l0.325,-0.355l0.327,-0.353l0.329,-0.351l0.331,-0.35l0.333,-0.347l0.336,-0.345l0.337,-0.344l0.339,-0.341l0.341,-0.339l0.344,-0.337l0.345,-0.336l0.347,-0.333l0.35,-0.331l0.351,-0.329l0.353,-0.327l0.355,-0.325l0.358,-0.322l0.359,-0.321l0.361,-0.318l0.363,-0.317l0.365,-0.314l0.366,-0.312l0.369,-0.31l0.371,-0.308l0.372,-0.305l0.374,-0.304l0.377,-0.301l0.377,-0.299l0.38,-0.296l0.382,-0.295l0.383,-0.292l0.386,-0.29l0.387,-0.288l0.389,-0.285l0.39,-0.284l0.393,-0.28l0.394,-0.279l0.395,-0.276l0.398,-0.274l0.4,-0.272l0.401,-0.269l0.402,-0.267l0.405,-0.265l0.406,-0.262l0.408,-0.26l0.409,-0.257l0.411,-0.255l0.413,-0.253l0.415,-0.25l0.416,-0.248l0.417,-0.245l0.42,-0.243l0.421,-0.241l0.422,-0.238l0.424,-0.235l0.426,-0.233l0.427,-0.231l0.429,-0.228l0.43,-0.225l0.432,-0.223l0.433,-0.221l0.435,-0.218l0.437,-0.215l0.438,-0.213l0.439,-0.21l0.441,-0.207l0.442,-0.205l0.444,-0.203l0.445,-0.2l0.447,-0.197l0.448,-0.194l0.449,-0.192l0.451,-0.189l0.452,-0.187l0.454,-0.184l0.455,-0.181l0.456,-0.178l0.458,-0.176l0.459,-0.173l0.46,-0.17l0.462,-0.168l0.463,-0.165l0.464,-0.162l0.466,-0.159l0.467,-0.157l0.468,-0.153l0.469,-0.151l0.471,-0.149l0.472,-0.145l0.473,-0.142l0.474,-0.14l0.476,-0.137l0.477,-0.134l0.478,-0.131l0.479,-0.128l0.48,-0.125l0.482,-0.123l0.482,-0.119l0.484,-0.117l0.485,-0.113l0.486,-0.111l0.487,-0.108l0.488,-0.105l0.489,-0.101l0.49,-0.099l0.492,-0.096l0.492,-0.093l0.494,-0.09l0.494,-0.087l0.495,-0.083l0.497,-0.081l0.498,-0.078l0.498,-0.074l0.499,-0.072l0.501,-0.069l0.501,-0.065l0.499,-0.062l0.255,-0.03l0.252,-0.029l0.252,-0.029l0.252,-0.028l0.252,-0.026l0.253,-0.027l0.253,-0.025l0.253,-0.024l0.253,-0.024l0.253,-0.023l0.254,-0.022l0.254,-0.022l0.255,-0.02l0.254,-0.02l0.255,-0.019l0.254,-0.018l0.255,-0.018l0.255,-0.016l0.256,-0.016l0.256,-0.015l0.256,-0.014l0.256,-0.014l0.256,-0.012l0.256,-0.012l0.257,-0.011l0.257,-0.01l0.257,-0.01l0.257,-0.008l0.258,-0.008l0.257,-0.007l0.258,-0.006l0.258,-0.005l0.258,-0.005l0.259,-0.003l0.258,-0.003l0.259,-0.002l0.259,-0.002l0.255,0l145.504,0l0,-90l-145.504,0l-0.255,0l-0.259,-0.002l-0.259,-0.002l-0.258,-0.003l-0.259,-0.003l-0.258,-0.005l-0.258,-0.005l-0.258,-0.006l-0.257,-0.007l-0.258,-0.008l-0.257,-0.008l-0.257,-0.01l-0.257,-0.01l-0.257,-0.011l-0.256,-0.012l-0.256,-0.012l-0.256,-0.014l-0.256,-0.014l-0.256,-0.015l-0.255,-0.016l-0.256,-0.016l-0.255,-0.018l-0.254,-0.018l-0.255,-0.019l-0.255,-0.02l-0.254,-0.02l-0.254,-0.022l-0.253,-0.022l-0.254,-0.023l-0.253,-0.024l-0.253,-0.024l-0.253,-0.025l-0.253,-0.027l-0.252,-0.026l-0.252,-0.028l-0.252,-0.029l-0.252,-0.029l-0.255,-0.03l-0.499,-0.062l-0.501,-0.065l-0.501,-0.069l-0.499,-0.072l-0.499,-0.074l-0.497,-0.078l-0.496,-0.081l-0.496,-0.083l-0.494,-0.087l-0.494,-0.09l-0.492,-0.093l-0.492,-0.096l-0.49,-0.099l-0.489,-0.101l-0.488,-0.105l-0.487,-0.108l-0.486,-0.111l-0.485,-0.113l-0.484,-0.117l-0.482,-0.119l-0.482,-0.123l-0.48,-0.125l-0.479,-0.128l-0.478,-0.131l-0.477,-0.134l-0.476,-0.137l-0.474,-0.14l-0.473,-0.142l-0.472,-0.145l-0.471,-0.149l-0.469,-0.151l-0.468,-0.153l-0.467,-0.157l-0.466,-0.159l-0.464,-0.162l-0.463,-0.165l-0.462,-0.168l-0.46,-0.17l-0.459,-0.173l-0.458,-0.176l-0.456,-0.178l-0.455,-0.181l-0.454,-0.184l-0.452,-0.187l-0.451,-0.189l-0.449,-0.192l-0.448,-0.194l-0.447,-0.197l-0.445,-0.2l-0.444,-0.203l-0.442,-0.205l-0.441,-0.207l-0.439,-0.21l-0.438,-0.213l-0.437,-0.215l-0.435,-0.218l-0.433,-0.221l-0.432,-0.223l-0.43,-0.225l-0.429,-0.228l-0.427,-0.231l-0.426,-0.233l-0.424,-0.235l-0.422,-0.238l-0.421,-0.241l-0.42,-0.243l-0.417,-0.245l-0.416,-0.248l-0.415,-0.25l-0.413,-0.253l-0.411,-0.255l-0.409,-0.257l-0.408,-0.26l-0.406,-0.262l-0.405,-0.265l-0.402,-0.267l-0.401,-0.269l-0.4,-0.272l-0.397,-0.274l-0.396,-0.276l-0.394,-0.279l-0.393,-0.281l-0.39,-0.283l-0.389,-0.285l-0.387,-0.288l-0.386,-0.29l-0.383,-0.292l-0.382,-0.295l-0.38,-0.296l-0.377,-0.299l-0.377,-0.301l-0.374,-0.304l-0.372,-0.305l-0.371,-0.308l-0.369,-0.31l-0.366,-0.312l-0.365,-0.314l-0.363,-0.317l-0.361,-0.318l-0.359,-0.321l-0.357,-0.322l-0.356,-0.325l-0.353,-0.327l-0.351,-0.329l-0.35,-0.331l-0.347,-0.333l-0.345,-0.336l-0.344,-0.337l-0.341,-0.339l-0.339,-0.341l-0.337,-0.344l-0.336,-0.345l-0.333,-0.347l-0.331,-0.35l-0.329,-0.351l-0.327,-0.353l-0.325,-0.355l-0.322,-0.358l-0.321,-0.359l-0.318,-0.361l-0.317,-0.363l-0.314,-0.365l-0.312,-0.366l-0.31,-0.369l-0.308,-0.371l-0.305,-0.372l-0.304,-0.374l-0.301,-0.377l-0.299,-0.377l-0.296,-0.38l-0.295,-0.382l-0.292,-0.383l-0.29,-0.386l-0.288,-0.387l-0.285,-0.389l-0.283,-0.39l-0.281,-0.393l-0.279,-0.394l-0.276,-0.396l-0.274,-0.397l-0.272,-0.4l-0.269,-0.4l-0.267,-0.403l-0.265,-0.405l-0.262,-0.406l-0.26,-0.408l-0.257,-0.409l-0.255,-0.411l-0.253,-0.413l-0.25,-0.415l-0.248,-0.416l-0.245,-0.418l-0.243,-0.419l-0.241,-0.421l-0.238,-0.422l-0.235,-0.424l-0.233,-0.426l-0.231,-0.427l-0.228,-0.429l-0.225,-0.43l-0.223,-0.432l-0.221,-0.433l-0.218,-0.435l-0.215,-0.437l-0.213,-0.438l-0.21,-0.439l-0.207,-0.441l-0.205,-0.442l-0.203,-0.444l-0.2,-0.445l-0.197,-0.447l-0.194,-0.448l-0.192,-0.449l-0.189,-0.451l-0.187,-0.452l-0.184,-0.454l-0.181,-0.455l-0.178,-0.456l-0.176,-0.458l-0.173,-0.459l-0.17,-0.46l-0.168,-0.462l-0.165,-0.463l-0.162,-0.464l-0.159,-0.466l-0.157,-0.467l-0.153,-0.468l-0.151,-0.469l-0.149,-0.471l-0.145,-0.472l-0.142,-0.473l-0.14,-0.474l-0.137,-0.476l-0.134,-0.477l-0.131,-0.478l-0.128,-0.479l-0.125,-0.48l-0.123,-0.482l-0.119,-0.482l-0.117,-0.484l-0.113,-0.485l-0.111,-0.486l-0.108,-0.487l-0.105,-0.488l-0.101,-0.489l-0.099,-0.49l-0.096,-0.492l-0.093,-0.492l-0.09,-0.493l-0.087,-0.495l-0.083,-0.495l-0.081,-0.497l-0.078,-0.498l-0.074,-0.498l-0.072,-0.499l-0.069,-0.501l-0.065,-0.501l-0.062,-0.499l-0.03,-0.255l-0.029,-0.252l-0.029,-0.252l-0.028,-0.252l-0.026,-0.252l-0.027,-0.253l-0.025,-0.253l-0.024,-0.253l-0.024,-0.253l-0.023,-0.253l-0.022,-0.254l-0.022,-0.254l-0.02,-0.255l-0.02,-0.254l-0.019,-0.255l-0.018,-0.254l-0.018,-0.255l-0.016,-0.255l-0.016,-0.256l-0.015,-0.256l-0.014,-0.256l-0.014,-0.256l-0.012,-0.256l-0.012,-0.256l-0.011,-0.257l-0.01,-0.257l-0.01,-0.257l-0.008,-0.257l-0.008,-0.258l-0.007,-0.257l-0.006,-0.258l-0.005,-0.258l-0.005,-0.258l-0.003,-0.259l-0.003,-0.258l-0.002,-0.259l-0.002,-0.259l0,-0.255l0,-145.504l-90,0Z" style="fill:#0d47a1;"/>
    <defs>
        <filter id="_Effect1" filterUnits="userSpaceOnUse" x="139.5" y="-86.25" width="446.75" height="672.5">
            <feGaussianBlur in="SourceGraphic" stdDeviation="10"/>
        </filter>
    </defs>
</svg>
