<?xml version="1.0" encoding="UTF-8" standalone="no"?>
<!DOCTYPE svg PUBLIC "-//W3C//DTD SVG 1.1//EN" "http://www.w3.org/Graphics/SVG/1.1/DTD/svg11.dtd">
<svg width="100%" height="100%" viewBox="0 0 500 500" version="1.1" xmlns="http://www.w3.org/2000/svg" xmlns:xlink="http://www.w3.org/1999/xlink" xml:space="preserve" style="fill-rule:evenodd;clip-rule:evenodd;stroke-linejoin:round;stroke-miterlimit:1.41421;">
    <g style="filter:url(#_Effect1);">
        <path d="M525.75,200l0,100l-150.5,0c-41.532,0 -75.25,33.718 -75.25,75.25l0,150.5l-100,0l0,-150.5c0,-41.532 -33.718,-75.25 -75.25,-75.25l-150.5,0l0,-100l551.5,0Z" style="fill-opacity:0.701961;"/>
    </g>
    <path d="M525.75,200l0,100l-150.5,0c-41.532,0 -75.25,33.718 -75.25,75.25l0,150.5l-100,0l0,-150.5c0,-41.532 -33.718,-75.25 -75.25,-75.25l-150.5,0l0,-100l551.5,0Z" style="fill:#808080;"/>
    <path d="M525.75,300l-150.5,0l-0.243,0l-0.243,0.002l-0.243,0.001l-0.243,0.003l-0.242,0.004l-0.243,0.004l-0.242,0.005l-0.242,0.006l-0.242,0.006l-0.241,0.007l-0.242,0.008l-0.241,0.009l-0.241,0.01l-0.241,0.01l-0.24,0.011l-0.241,0.012l-0.24,0.013l-0.24,0.013l-0.24,0.014l-0.24,0.015l-0.239,0.015l-0.239,0.017l-0.239,0.017l-0.239,0.018l-0.239,0.018l-0.238,0.019l-0.238,0.021l-0.238,0.02l-0.238,0.022l-0.238,0.022l-0.237,0.023l-0.237,0.024l-0.237,0.024l-0.237,0.025l-0.236,0.026l-0.237,0.027l-0.236,0.027l-0.236,0.029l-0.471,0.058l-0.47,0.061l-0.469,0.065l-0.468,0.067l-0.467,0.07l-0.467,0.073l-0.465,0.075l-0.465,0.079l-0.463,0.081l-0.463,0.084l-0.461,0.087l-0.461,0.09l-0.46,0.093l-0.458,0.095l-0.458,0.099l-0.456,0.101l-0.456,0.103l-0.454,0.107l-0.453,0.109l-0.453,0.112l-0.451,0.115l-0.45,0.117l-0.449,0.12l-0.448,0.123l-0.447,0.126l-0.445,0.128l-0.445,0.131l-0.443,0.133l-0.443,0.136l-0.441,0.139l-0.44,0.142l-0.439,0.144l-0.437,0.147l-0.436,0.149l-0.436,0.152l-0.434,0.154l-0.432,0.157l-0.432,0.16l-0.43,0.162l-0.429,0.165l-0.428,0.167l-0.426,0.17l-0.425,0.172l-0.424,0.175l-0.423,0.177l-0.421,0.18l-0.42,0.183l-0.419,0.184l-0.417,0.188l-0.416,0.189l-0.415,0.193l-0.413,0.194l-0.412,0.197l-0.41,0.2l-0.409,0.202l-0.408,0.204l-0.406,0.206l-0.405,0.21l-0.404,0.211l-0.402,0.214l-0.4,0.216l-0.399,0.218l-0.398,0.221l-0.396,0.223l-0.395,0.226l-0.393,0.228l-0.392,0.23l-0.39,0.232l-0.389,0.235l-0.387,0.237l-0.385,0.239l-0.384,0.241l-0.383,0.244l-0.381,0.246l-0.379,0.248l-0.378,0.25l-0.376,0.253l-0.374,0.255l-0.373,0.257l-0.372,0.259l-0.369,0.261l-0.368,0.263l-0.367,0.266l-0.364,0.268l-0.363,0.27l-0.362,0.272l-0.359,0.274l-0.358,0.276l-0.357,0.278l-0.354,0.281l-0.353,0.282l-0.351,0.285l-0.349,0.286l-0.348,0.289l-0.346,0.291l-0.344,0.293l-0.342,0.294l-0.341,0.297l-0.338,0.299l-0.337,0.301l-0.335,0.302l-0.334,0.305l-0.331,0.307l-0.33,0.308l-0.327,0.311l-0.326,0.313l-0.324,0.314l-0.322,0.316l-0.32,0.319l-0.319,0.32l-0.316,0.322l-0.314,0.324l-0.313,0.326l-0.311,0.327l-0.308,0.33l-0.307,0.331l-0.305,0.334l-0.302,0.335l-0.301,0.337l-0.299,0.338l-0.297,0.341l-0.294,0.342l-0.293,0.344l-0.291,0.346l-0.289,0.348l-0.286,0.349l-0.285,0.351l-0.282,0.353l-0.281,0.354l-0.278,0.357l-0.276,0.358l-0.274,0.359l-0.272,0.362l-0.27,0.363l-0.268,0.364l-0.266,0.367l-0.263,0.368l-0.261,0.369l-0.259,0.372l-0.257,0.373l-0.255,0.374l-0.253,0.376l-0.25,0.378l-0.248,0.379l-0.246,0.381l-0.244,0.383l-0.241,0.384l-0.239,0.385l-0.237,0.387l-0.235,0.389l-0.232,0.39l-0.23,0.392l-0.228,0.393l-0.226,0.395l-0.223,0.396l-0.221,0.398l-0.218,0.399l-0.216,0.4l-0.214,0.402l-0.211,0.404l-0.21,0.405l-0.206,0.406l-0.204,0.408l-0.202,0.409l-0.2,0.41l-0.197,0.412l-0.194,0.413l-0.193,0.415l-0.189,0.416l-0.188,0.417l-0.184,0.419l-0.183,0.42l-0.18,0.421l-0.177,0.423l-0.175,0.424l-0.172,0.425l-0.17,0.426l-0.167,0.428l-0.165,0.429l-0.162,0.43l-0.16,0.432l-0.157,0.432l-0.154,0.434l-0.152,0.436l-0.149,0.436l-0.147,0.437l-0.144,0.439l-0.142,0.44l-0.139,0.441l-0.136,0.443l-0.133,0.443l-0.131,0.445l-0.128,0.445l-0.126,0.447l-0.123,0.448l-0.12,0.449l-0.117,0.45l-0.115,0.451l-0.112,0.453l-0.109,0.453l-0.107,0.454l-0.103,0.456l-0.101,0.456l-0.099,0.458l-0.095,0.458l-0.093,0.46l-0.09,0.461l-0.087,0.461l-0.084,0.463l-0.081,0.463l-0.079,0.465l-0.075,0.465l-0.073,0.467l-0.07,0.467l-0.067,0.468l-0.065,0.469l-0.061,0.47l-0.058,0.471l-0.029,0.236l-0.027,0.236l-0.027,0.237l-0.026,0.236l-0.025,0.237l-0.024,0.237l-0.024,0.237l-0.023,0.237l-0.022,0.238l-0.022,0.238l-0.02,0.238l-0.021,0.238l-0.019,0.238l-0.018,0.239l-0.018,0.239l-0.017,0.239l-0.017,0.239l-0.015,0.239l-0.015,0.24l-0.014,0.24l-0.013,0.24l-0.013,0.24l-0.012,0.241l-0.011,0.24l-0.01,0.241l-0.01,0.241l-0.009,0.241l-0.008,0.242l-0.007,0.241l-0.006,0.242l-0.006,0.242l-0.005,0.242l-0.004,0.243l-0.004,0.242l-0.003,0.243l-0.001,0.243l-0.002,0.243l0,0.243l0,150.5l-100,0l0,-150.5l0,-0.243l-0.002,-0.243l-0.001,-0.243l-0.003,-0.243l-0.004,-0.242l-0.004,-0.243l-0.005,-0.242l-0.006,-0.242l-0.006,-0.242l-0.007,-0.241l-0.008,-0.242l-0.009,-0.241l-0.01,-0.241l-0.01,-0.241l-0.011,-0.24l-0.012,-0.241l-0.013,-0.24l-0.013,-0.24l-0.014,-0.24l-0.015,-0.24l-0.015,-0.239l-0.017,-0.239l-0.017,-0.239l-0.018,-0.239l-0.018,-0.239l-0.019,-0.238l-0.021,-0.238l-0.02,-0.238l-0.022,-0.238l-0.022,-0.238l-0.023,-0.237l-0.024,-0.237l-0.024,-0.237l-0.025,-0.237l-0.026,-0.236l-0.027,-0.237l-0.027,-0.236l-0.029,-0.236l-0.058,-0.471l-0.061,-0.47l-0.065,-0.469l-0.067,-0.468l-0.07,-0.467l-0.073,-0.467l-0.075,-0.465l-0.079,-0.465l-0.081,-0.463l-0.084,-0.463l-0.087,-0.461l-0.09,-0.461l-0.093,-0.46l-0.095,-0.458l-0.099,-0.458l-0.101,-0.456l-0.103,-0.456l-0.107,-0.454l-0.109,-0.453l-0.112,-0.453l-0.115,-0.451l-0.117,-0.45l-0.12,-0.449l-0.123,-0.448l-0.126,-0.447l-0.128,-0.445l-0.131,-0.445l-0.133,-0.443l-0.136,-0.443l-0.139,-0.441l-0.142,-0.44l-0.144,-0.439l-0.147,-0.437l-0.149,-0.436l-0.152,-0.436l-0.154,-0.434l-0.157,-0.432l-0.16,-0.432l-0.162,-0.43l-0.165,-0.429l-0.167,-0.428l-0.17,-0.426l-0.172,-0.425l-0.175,-0.424l-0.177,-0.423l-0.18,-0.421l-0.183,-0.42l-0.184,-0.419l-0.188,-0.417l-0.189,-0.416l-0.193,-0.415l-0.194,-0.413l-0.197,-0.412l-0.2,-0.41l-0.202,-0.409l-0.204,-0.408l-0.206,-0.406l-0.21,-0.405l-0.211,-0.404l-0.214,-0.402l-0.216,-0.4l-0.218,-0.399l-0.221,-0.398l-0.223,-0.396l-0.226,-0.395l-0.228,-0.393l-0.23,-0.392l-0.232,-0.39l-0.235,-0.389l-0.237,-0.387l-0.239,-0.385l-0.241,-0.384l-0.244,-0.383l-0.246,-0.381l-0.248,-0.379l-0.25,-0.378l-0.253,-0.376l-0.255,-0.374l-0.257,-0.373l-0.259,-0.372l-0.261,-0.369l-0.263,-0.368l-0.266,-0.367l-0.268,-0.364l-0.27,-0.363l-0.272,-0.362l-0.274,-0.359l-0.276,-0.358l-0.278,-0.357l-0.281,-0.354l-0.282,-0.353l-0.285,-0.351l-0.286,-0.349l-0.289,-0.348l-0.291,-0.346l-0.293,-0.344l-0.294,-0.342l-0.297,-0.341l-0.299,-0.338l-0.301,-0.337l-0.302,-0.335l-0.305,-0.334l-0.307,-0.331l-0.308,-0.33l-0.311,-0.327l-0.313,-0.326l-0.314,-0.324l-0.316,-0.322l-0.319,-0.32l-0.32,-0.319l-0.322,-0.316l-0.324,-0.314l-0.326,-0.313l-0.327,-0.311l-0.33,-0.308l-0.331,-0.307l-0.334,-0.305l-0.335,-0.302l-0.337,-0.301l-0.338,-0.299l-0.341,-0.297l-0.342,-0.294l-0.344,-0.293l-0.346,-0.291l-0.348,-0.289l-0.349,-0.286l-0.351,-0.285l-0.353,-0.282l-0.354,-0.281l-0.357,-0.278l-0.358,-0.276l-0.359,-0.274l-0.362,-0.272l-0.363,-0.27l-0.364,-0.268l-0.367,-0.266l-0.368,-0.263l-0.369,-0.261l-0.372,-0.259l-0.373,-0.257l-0.374,-0.255l-0.376,-0.253l-0.378,-0.25l-0.379,-0.248l-0.381,-0.246l-0.383,-0.244l-0.384,-0.241l-0.385,-0.239l-0.387,-0.237l-0.389,-0.235l-0.39,-0.232l-0.392,-0.23l-0.393,-0.228l-0.395,-0.226l-0.396,-0.223l-0.398,-0.221l-0.399,-0.218l-0.4,-0.216l-0.402,-0.214l-0.404,-0.211l-0.405,-0.21l-0.406,-0.206l-0.408,-0.204l-0.409,-0.202l-0.41,-0.2l-0.412,-0.197l-0.413,-0.194l-0.415,-0.193l-0.416,-0.189l-0.417,-0.188l-0.419,-0.184l-0.42,-0.183l-0.421,-0.18l-0.423,-0.177l-0.424,-0.175l-0.425,-0.172l-0.426,-0.17l-0.428,-0.167l-0.429,-0.165l-0.43,-0.162l-0.432,-0.16l-0.432,-0.157l-0.434,-0.154l-0.436,-0.152l-0.436,-0.149l-0.437,-0.147l-0.439,-0.144l-0.44,-0.142l-0.441,-0.139l-0.443,-0.136l-0.443,-0.133l-0.445,-0.131l-0.445,-0.128l-0.447,-0.126l-0.448,-0.123l-0.449,-0.12l-0.45,-0.117l-0.451,-0.115l-0.453,-0.112l-0.453,-0.109l-0.454,-0.107l-0.456,-0.103l-0.456,-0.101l-0.458,-0.099l-0.458,-0.095l-0.46,-0.093l-0.461,-0.09l-0.461,-0.087l-0.463,-0.084l-0.463,-0.081l-0.465,-0.079l-0.465,-0.075l-0.467,-0.073l-0.467,-0.07l-0.468,-0.067l-0.469,-0.065l-0.47,-0.061l-0.471,-0.058l-0.236,-0.029l-0.236,-0.027l-0.237,-0.027l-0.236,-0.026l-0.237,-0.025l-0.237,-0.024l-0.237,-0.024l-0.237,-0.023l-0.238,-0.022l-0.238,-0.022l-0.238,-0.02l-0.238,-0.021l-0.238,-0.019l-0.239,-0.018l-0.239,-0.018l-0.239,-0.017l-0.239,-0.017l-0.239,-0.015l-0.24,-0.015l-0.24,-0.014l-0.24,-0.013l-0.24,-0.013l-0.241,-0.012l-0.24,-0.011l-0.241,-0.01l-0.241,-0.01l-0.241,-0.009l-0.242,-0.008l-0.241,-0.007l-0.242,-0.006l-0.242,-0.006l-0.242,-0.005l-0.243,-0.004l-0.242,-0.004l-0.243,-0.003l-0.243,-0.001l-0.243,-0.002l-0.243,0l-150.5,0l0,-100l551.5,0l0,100Zm-546.5,-95l0,90l145.504,0l0.255,0l0.259,0.002l0.259,0.002l0.258,0.003l0.259,0.003l0.258,0.005l0.258,0.005l0.258,0.006l0.257,0.007l0.258,0.008l0.257,0.008l0.257,0.01l0.257,0.01l0.257,0.011l0.256,0.012l0.256,0.012l0.256,0.014l0.256,0.014l0.256,0.015l0.256,0.016l0.255,0.016l0.255,0.018l0.254,0.018l0.255,0.019l0.254,0.02l0.255,0.02l0.254,0.022l0.254,0.022l0.253,0.023l0.253,0.024l0.253,0.024l0.253,0.025l0.253,0.027l0.252,0.026l0.252,0.028l0.252,0.029l0.252,0.029l0.255,0.03l0.499,0.062l0.501,0.065l0.501,0.069l0.499,0.072l0.498,0.074l0.498,0.078l0.497,0.081l0.495,0.083l0.495,0.087l0.493,0.09l0.492,0.093l0.492,0.096l0.49,0.099l0.489,0.101l0.488,0.105l0.487,0.108l0.486,0.111l0.485,0.113l0.484,0.117l0.482,0.119l0.482,0.123l0.48,0.125l0.479,0.128l0.478,0.131l0.477,0.134l0.476,0.137l0.474,0.14l0.473,0.142l0.472,0.145l0.471,0.149l0.469,0.151l0.468,0.153l0.467,0.157l0.466,0.159l0.464,0.162l0.463,0.165l0.462,0.168l0.46,0.17l0.459,0.173l0.458,0.176l0.456,0.178l0.455,0.181l0.454,0.184l0.452,0.187l0.451,0.189l0.449,0.192l0.448,0.194l0.447,0.197l0.445,0.2l0.444,0.203l0.442,0.205l0.441,0.207l0.439,0.21l0.438,0.213l0.437,0.215l0.435,0.218l0.433,0.221l0.432,0.223l0.43,0.225l0.429,0.228l0.427,0.231l0.426,0.233l0.424,0.235l0.422,0.238l0.421,0.241l0.419,0.243l0.418,0.245l0.416,0.248l0.415,0.25l0.413,0.253l0.411,0.255l0.409,0.257l0.408,0.26l0.406,0.262l0.405,0.265l0.403,0.267l0.4,0.269l0.4,0.272l0.397,0.274l0.396,0.276l0.394,0.279l0.393,0.281l0.39,0.283l0.389,0.285l0.387,0.288l0.386,0.29l0.383,0.292l0.382,0.295l0.38,0.296l0.377,0.299l0.377,0.301l0.374,0.304l0.372,0.305l0.371,0.308l0.369,0.31l0.366,0.312l0.365,0.314l0.363,0.317l0.361,0.318l0.359,0.321l0.358,0.322l0.355,0.325l0.353,0.327l0.351,0.329l0.35,0.331l0.347,0.333l0.345,0.336l0.344,0.337l0.341,0.339l0.339,0.341l0.337,0.344l0.336,0.345l0.333,0.347l0.331,0.35l0.329,0.351l0.327,0.353l0.325,0.356l0.322,0.357l0.321,0.359l0.318,0.361l0.317,0.363l0.314,0.365l0.312,0.366l0.31,0.369l0.308,0.371l0.305,0.372l0.304,0.374l0.301,0.377l0.299,0.377l0.296,0.38l0.295,0.382l0.292,0.383l0.29,0.386l0.288,0.387l0.285,0.389l0.283,0.39l0.281,0.393l0.279,0.394l0.276,0.396l0.274,0.397l0.272,0.4l0.269,0.401l0.267,0.402l0.265,0.405l0.262,0.406l0.26,0.408l0.257,0.409l0.255,0.411l0.253,0.413l0.25,0.415l0.248,0.416l0.245,0.417l0.243,0.42l0.241,0.421l0.238,0.422l0.235,0.424l0.233,0.426l0.231,0.427l0.228,0.429l0.225,0.43l0.223,0.432l0.221,0.433l0.218,0.435l0.215,0.437l0.213,0.438l0.21,0.439l0.207,0.441l0.205,0.442l0.203,0.444l0.2,0.445l0.197,0.447l0.194,0.448l0.192,0.449l0.189,0.451l0.187,0.452l0.184,0.454l0.181,0.455l0.178,0.456l0.176,0.458l0.173,0.459l0.17,0.46l0.168,0.462l0.165,0.463l0.162,0.464l0.159,0.466l0.157,0.467l0.153,0.468l0.151,0.469l0.149,0.471l0.145,0.472l0.142,0.473l0.14,0.474l0.137,0.476l0.134,0.477l0.131,0.478l0.128,0.479l0.125,0.48l0.123,0.482l0.119,0.482l0.117,0.484l0.113,0.485l0.111,0.486l0.108,0.487l0.105,0.488l0.101,0.489l0.099,0.49l0.096,0.492l0.093,0.492l0.09,0.494l0.087,0.494l0.083,0.496l0.081,0.496l0.078,0.497l0.074,0.499l0.072,0.499l0.069,0.501l0.065,0.501l0.062,0.499l0.03,0.255l0.029,0.252l0.029,0.252l0.028,0.252l0.026,0.252l0.027,0.253l0.025,0.253l0.024,0.253l0.024,0.253l0.023,0.254l0.022,0.253l0.022,0.254l0.02,0.254l0.02,0.255l0.019,0.255l0.018,0.254l0.018,0.255l0.016,0.256l0.016,0.255l0.015,0.256l0.014,0.256l0.014,0.256l0.012,0.256l0.012,0.256l0.011,0.257l0.01,0.257l0.01,0.257l0.008,0.257l0.008,0.258l0.007,0.257l0.006,0.258l0.005,0.258l0.005,0.258l0.003,0.259l0.003,0.258l0.002,0.259l0.002,0.259l0,0.255l0,145.504l90,0l0,-145.504l0,-0.255l0.002,-0.259l0.002,-0.259l0.003,-0.258l0.003,-0.259l0.005,-0.258l0.005,-0.258l0.006,-0.258l0.007,-0.257l0.008,-0.258l0.008,-0.257l0.01,-0.257l0.01,-0.257l0.011,-0.257l0.012,-0.256l0.012,-0.256l0.014,-0.256l0.014,-0.256l0.015,-0.256l0.016,-0.256l0.016,-0.255l0.018,-0.255l0.018,-0.254l0.019,-0.255l0.02,-0.254l0.02,-0.255l0.022,-0.254l0.022,-0.254l0.023,-0.253l0.024,-0.253l0.024,-0.253l0.025,-0.253l0.027,-0.253l0.026,-0.252l0.028,-0.252l0.029,-0.252l0.029,-0.252l0.03,-0.255l0.062,-0.499l0.065,-0.501l0.069,-0.501l0.072,-0.499l0.074,-0.498l0.078,-0.498l0.081,-0.497l0.083,-0.495l0.087,-0.494l0.09,-0.494l0.093,-0.492l0.096,-0.492l0.099,-0.49l0.101,-0.489l0.105,-0.488l0.108,-0.487l0.111,-0.486l0.113,-0.485l0.117,-0.484l0.119,-0.482l0.123,-0.482l0.125,-0.48l0.128,-0.479l0.131,-0.478l0.134,-0.477l0.137,-0.476l0.14,-0.474l0.142,-0.473l0.145,-0.472l0.149,-0.471l0.151,-0.469l0.153,-0.468l0.157,-0.467l0.159,-0.466l0.162,-0.464l0.165,-0.463l0.168,-0.462l0.17,-0.46l0.173,-0.459l0.176,-0.458l0.178,-0.456l0.181,-0.455l0.184,-0.454l0.187,-0.452l0.189,-0.451l0.192,-0.449l0.194,-0.448l0.197,-0.447l0.2,-0.445l0.203,-0.444l0.205,-0.442l0.207,-0.441l0.21,-0.439l0.213,-0.438l0.215,-0.437l0.218,-0.435l0.221,-0.433l0.223,-0.432l0.225,-0.43l0.228,-0.429l0.231,-0.427l0.233,-0.426l0.235,-0.424l0.238,-0.422l0.241,-0.421l0.243,-0.42l0.245,-0.417l0.248,-0.416l0.25,-0.415l0.253,-0.413l0.255,-0.411l0.257,-0.409l0.26,-0.408l0.262,-0.406l0.265,-0.405l0.267,-0.402l0.269,-0.401l0.272,-0.4l0.274,-0.398l0.276,-0.395l0.279,-0.394l0.28,-0.393l0.284,-0.39l0.285,-0.389l0.288,-0.387l0.29,-0.386l0.292,-0.383l0.295,-0.382l0.296,-0.38l0.299,-0.377l0.301,-0.377l0.304,-0.374l0.305,-0.372l0.308,-0.371l0.31,-0.369l0.312,-0.366l0.314,-0.365l0.317,-0.363l0.318,-0.361l0.321,-0.359l0.322,-0.358l0.325,-0.355l0.327,-0.353l0.329,-0.351l0.331,-0.35l0.333,-0.347l0.336,-0.345l0.337,-0.344l0.339,-0.341l0.341,-0.339l0.344,-0.337l0.345,-0.336l0.347,-0.333l0.35,-0.331l0.351,-0.329l0.353,-0.327l0.355,-0.325l0.358,-0.322l0.359,-0.321l0.361,-0.318l0.363,-0.317l0.365,-0.314l0.366,-0.312l0.369,-0.31l0.371,-0.308l0.372,-0.305l0.374,-0.304l0.377,-0.301l0.377,-0.299l0.38,-0.296l0.382,-0.295l0.383,-0.292l0.386,-0.29l0.387,-0.288l0.389,-0.285l0.39,-0.284l0.393,-0.28l0.394,-0.279l0.395,-0.276l0.398,-0.274l0.4,-0.272l0.401,-0.269l0.402,-0.267l0.405,-0.265l0.406,-0.262l0.408,-0.26l0.409,-0.257l0.411,-0.255l0.413,-0.253l0.415,-0.25l0.416,-0.248l0.417,-0.245l0.42,-0.243l0.421,-0.241l0.422,-0.238l0.424,-0.235l0.426,-0.233l0.427,-0.231l0.429,-0.228l0.43,-0.225l0.432,-0.223l0.433,-0.221l0.435,-0.218l0.437,-0.215l0.438,-0.213l0.439,-0.21l0.441,-0.207l0.442,-0.205l0.444,-0.203l0.445,-0.2l0.447,-0.197l0.448,-0.194l0.449,-0.192l0.451,-0.189l0.452,-0.187l0.454,-0.184l0.455,-0.181l0.456,-0.178l0.458,-0.176l0.459,-0.173l0.46,-0.17l0.462,-0.168l0.463,-0.165l0.464,-0.162l0.466,-0.159l0.467,-0.157l0.468,-0.153l0.469,-0.151l0.471,-0.149l0.472,-0.145l0.473,-0.142l0.474,-0.14l0.476,-0.137l0.477,-0.134l0.478,-0.131l0.479,-0.128l0.48,-0.125l0.482,-0.123l0.482,-0.119l0.484,-0.117l0.485,-0.113l0.486,-0.111l0.487,-0.108l0.488,-0.105l0.489,-0.101l0.49,-0.099l0.492,-0.096l0.492,-0.093l0.494,-0.09l0.494,-0.087l0.495,-0.083l0.497,-0.081l0.498,-0.078l0.498,-0.074l0.499,-0.072l0.501,-0.069l0.501,-0.065l0.499,-0.062l0.255,-0.03l0.252,-0.029l0.252,-0.029l0.252,-0.028l0.252,-0.026l0.253,-0.027l0.253,-0.025l0.253,-0.024l0.253,-0.024l0.253,-0.023l0.254,-0.022l0.254,-0.022l0.255,-0.02l0.254,-0.02l0.255,-0.019l0.254,-0.018l0.255,-0.018l0.255,-0.016l0.256,-0.016l0.256,-0.015l0.256,-0.014l0.256,-0.014l0.256,-0.012l0.256,-0.012l0.257,-0.011l0.257,-0.01l0.257,-0.01l0.257,-0.008l0.258,-0.008l0.257,-0.007l0.258,-0.006l0.258,-0.005l0.258,-0.005l0.259,-0.003l0.258,-0.003l0.259,-0.002l0.259,-0.002l0.255,0l145.504,0l0,-90l-541.5,0Z" style="fill:#404040;"/>
    <defs>
        <filter id="_Effect1" filterUnits="userSpaceOnUse" x="-85.75" y="140" width="671.5" height="445.75">
            <feGaussianBlur in="SourceGraphic" stdDeviation="10"/>
        </filter>
    </defs>
</svg>
