<?xml version="1.0" encoding="UTF-8" standalone="no"?>
<!DOCTYPE svg PUBLIC "-//W3C//DTD SVG 1.1//EN" "http://www.w3.org/Graphics/SVG/1.1/DTD/svg11.dtd">
<svg width="100%" height="100%" viewBox="0 0 308 192" version="1.1" xmlns="http://www.w3.org/2000/svg" xmlns:xlink="http://www.w3.org/1999/xlink" xml:space="preserve" style="fill-rule:evenodd;clip-rule:evenodd;stroke-linejoin:round;stroke-miterlimit:1.41421;">
    <g>
        <path d="M26.457,72.993c0.013,0.034 29.119,-0.014 29.119,-0.014l0,5.387l-14.797,0l0,41.922l-6.433,0l0,-41.922l-7.87,0.002c-1.074,2.815 -3.801,4.817 -6.991,4.817c-4.128,0 -7.48,-3.351 -7.48,-7.48c0,-4.128 3.352,-7.479 7.48,-7.479c3.172,0 5.885,1.978 6.972,4.767Z" style="fill:#fff;stroke:#fff;stroke-width:2.5px;"/>
        <path d="M79.471,84.072c1.124,-2.924 3.973,-4.944 7.291,-4.944c4.302,0 7.794,3.492 7.794,7.794c0,4.302 -3.492,7.794 -7.794,7.794c-3.443,0 -5.899,-1.722 -6.929,-4.82c-2.813,0.309 -5.052,2.449 -6.663,4.361c-1.922,2.281 -3.332,6.598 -3.332,10.907l0,15.124l-5.862,0l0,-35.489l5.862,0l0,6.939c0.972,-2.514 2.467,-4.441 4.484,-5.783c1.507,-1.002 3.223,-1.63 5.149,-1.883c0.005,-0.001 -0.005,0.011 0,0Z" style="fill:#fff;stroke:#fff;stroke-width:2.5px;"/>
        <path d="M128.239,93.699l0,26.589l-5.862,0l0,-5.323c-1.036,2.049 -2.446,3.601 -4.231,4.658c-1.785,1.056 -3.871,1.584 -6.258,1.584c-3.633,0 -6.337,-1.188 -8.112,-3.565c-1.774,-2.376 -2.661,-5.973 -2.661,-10.789l0,-21.991l5.83,0l0,21.991c0,3.19 0.565,5.534 1.695,7.034c1.13,1.5 2.879,2.25 5.244,2.25c2.747,0 4.849,-0.966 6.306,-2.899c1.458,-1.933 2.187,-4.706 2.187,-8.318l0,-11.206c-2.867,-1.151 -4.894,-3.975 -4.894,-7.251c0,-4.302 3.493,-7.795 7.794,-7.795c4.302,0 7.795,3.493 7.795,7.795c0,3.249 -2.004,6.066 -4.833,7.236c-0.917,0.379 0,0 0,0Z" style="fill:#fff;stroke:#fff;stroke-width:2.5px;"/>
        <path d="M154.471,120.288l-14.005,0l0,-38.293l0.01,0.002c-3.54,-0.735 -6.204,-3.875 -6.204,-7.632c0,-4.301 3.492,-7.794 7.794,-7.794c3.833,0 7.023,2.773 7.673,6.42c0.08,0.446 -0.002,-0.012 -0.002,-0.012l4.734,0c4.838,0 8.566,1.046 11.186,3.137c2.619,2.092 3.929,5.049 3.929,8.873c0,2.049 -0.692,3.908 -2.075,5.577c-1.384,1.669 -3.46,2.714 -6.227,3.137c3.105,0.464 5.54,1.79 7.304,3.976c1.764,2.187 2.646,5.392 2.646,9.617c0,4.289 -1.405,7.526 -4.215,9.712c-2.809,2.187 -6.992,3.28 -12.548,3.28Zm0,-23.86l-7.573,0l0,18.6l7.573,0c3.718,0 6.369,-0.65 7.954,-1.949c1.584,-1.299 2.376,-3.438 2.376,-6.416c0,-3.93 -0.834,-6.618 -2.503,-8.065c-1.669,-1.447 -4.278,-2.17 -7.827,-2.17Zm-0.126,-18.189l-5.512,0c-0.003,0.006 -0.536,0.832 -0.784,1.122c-0.323,0.376 -1.151,1.136 -1.151,1.136l0,10.734l7.447,0c3.084,0 5.318,-0.591 6.701,-1.774c1.384,-1.183 2.076,-2.673 2.076,-4.468c0,-2.387 -0.681,-4.109 -2.044,-5.165c-1.362,-1.056 -3.607,-1.585 -6.733,-1.585Z" style="fill:#fff;stroke:#fff;stroke-width:2.5px;"/>
        <path d="M193.795,88.886c-2.958,0 -5.197,1.152 -6.718,3.454c-1.521,2.303 -2.281,5.714 -2.281,10.235c0,4.5 0.76,7.906 2.281,10.219c1.521,2.313 3.76,3.47 6.718,3.47c2.979,0 5.228,-1.157 6.749,-3.47c1.521,-2.313 2.282,-5.719 2.282,-10.219c0,-4.521 -0.761,-7.932 -2.282,-10.235c-1.521,-2.302 -3.77,-3.454 -6.749,-3.454Zm0,-4.943c4.922,0 8.687,1.595 11.296,4.785c2.609,3.19 3.914,7.805 3.914,13.847c0,6.063 -1.299,10.684 -3.898,13.863c-2.598,3.179 -6.369,4.769 -11.312,4.769c-4.922,0 -8.682,-1.59 -11.281,-4.769c-2.598,-3.179 -3.897,-7.8 -3.897,-13.863c0,-6.042 1.299,-10.657 3.897,-13.847c2.599,-3.19 6.359,-4.785 11.281,-4.785Z" style="fill:#fff;fill-rule:nonzero;stroke:#fff;stroke-width:2.5px;"/>
        <path d="M232.865,88.886c-2.957,0 -5.197,1.152 -6.718,3.454c-1.521,2.303 -2.281,5.714 -2.281,10.235c0,4.5 0.76,7.906 2.281,10.219c1.521,2.313 3.761,3.47 6.718,3.47c2.979,0 5.228,-1.157 6.749,-3.47c1.521,-2.313 2.282,-5.719 2.282,-10.219c0,-4.521 -0.761,-7.932 -2.282,-10.235c-1.521,-2.302 -3.77,-3.454 -6.749,-3.454Zm0,-4.943c4.922,0 8.687,1.595 11.296,4.785c2.609,3.19 3.914,7.805 3.914,13.847c0,6.063 -1.299,10.684 -3.898,13.863c-2.598,3.179 -6.369,4.769 -11.312,4.769c-4.922,0 -8.682,-1.59 -11.281,-4.769c-2.598,-3.179 -3.897,-7.8 -3.897,-13.863c0,-6.042 1.299,-10.657 3.897,-13.847c2.599,-3.19 6.359,-4.785 11.281,-4.785Z" style="fill:#fff;fill-rule:nonzero;stroke:#fff;stroke-width:2.5px;"/>
        <path d="M279.774,120.288l-3.762,0c-3.485,0 -6.184,-1.114 -8.096,-3.343c-1.912,-2.229 -2.868,-5.392 -2.868,-9.49l0,-32.099l-5.381,0c-1.079,3.012 -3.98,5.189 -7.361,5.189c-4.302,0 -7.794,-3.492 -7.794,-7.794c0,-4.302 3.492,-7.794 7.794,-7.794c3.617,0 6.671,2.493 7.549,5.836c0.166,0.633 0,0 0,0l11.024,0l0,36.662c0,2.619 0.48,4.594 1.442,5.925c0.961,1.331 2.381,1.997 4.261,1.997l3.342,0c1.101,-2.971 3.971,-5.112 7.322,-5.112c4.301,0 7.794,3.493 7.794,7.795c0,4.301 -3.493,7.794 -7.794,7.794c-3.517,0 -6.503,-2.364 -7.472,-5.566c-0.217,-0.715 0,0 0,0Z" style="fill:#fff;stroke:#fff;stroke-width:2.5px;"/>
    </g>
</svg>
