<?xml version="1.0" encoding="UTF-8" standalone="no"?><!DOCTYPE svg PUBLIC "-//W3C//DTD SVG 1.1//EN" "http://www.w3.org/Graphics/SVG/1.1/DTD/svg11.dtd"><svg width="100%" height="100%" viewBox="0 0 500 500" version="1.1" xmlns="http://www.w3.org/2000/svg" xmlns:xlink="http://www.w3.org/1999/xlink" xml:space="preserve" style="fill-rule:evenodd;clip-rule:evenodd;stroke-linejoin:round;stroke-miterlimit:1.41421;"><g style="filter:url(#_Effect1);"><path d="M475,137.5c0,-62.09 -50.41,-112.5 -112.5,-112.5l-225,0c-62.09,0 -112.5,50.41 -112.5,112.5l0,225c0,62.09 50.41,112.5 112.5,112.5l225,0c62.09,0 112.5,-50.41 112.5,-112.5l0,-225Z" style="fill-opacity:0.301961;"/></g><path d="M475,137.5c0,-62.09 -50.41,-112.5 -112.5,-112.5l-225,0c-62.09,0 -112.5,50.41 -112.5,112.5l0,225c0,62.09 50.41,112.5 112.5,112.5l225,0c62.09,0 112.5,-50.41 112.5,-112.5l0,-225Z" style="fill:#ff6a00;"/><clipPath id="_clip2"><path d="M475,137.5c0,-62.09 -50.41,-112.5 -112.5,-112.5l-225,0c-62.09,0 -112.5,50.41 -112.5,112.5l0,225c0,62.09 50.41,112.5 112.5,112.5l225,0c62.09,0 112.5,-50.41 112.5,-112.5l0,-225Z"/></clipPath><g clip-path="url(#_clip2)"><path d="M100,100c0,0 186.104,0.253 265.153,73.451c21.315,19.737 134.847,153.549 134.847,153.549l0,173l-298.023,0l-101.977,-100l0,-300Z" style="fill-opacity:0;"/><clipPath id="_clip3"><path d="M100,100c0,0 186.104,0.253 265.153,73.451c21.315,19.737 134.847,153.549 134.847,153.549l0,173l-298.023,0l-101.977,-100l0,-300Z"/></clipPath><g clip-path="url(#_clip3)"><path d="M-65.112,241.388l365.112,365.112l260.731,-260.731l-365.112,-365.112l-260.731,260.731Z" style="fill:url(#_Linear4);"/></g></g><path d="M100,100c0,0 300,0.408 300,150c0,149.592 -300,150 -300,150l0,-300Z" style="fill:#fff;"/><defs><filter id="_Effect1" filterUnits="userSpaceOnUse" x="-65" y="-65" width="630" height="630"><feGaussianBlur in="SourceGraphic" stdDeviation="15"/></filter><linearGradient id="_Linear4" x1="0" y1="0" x2="1" y2="0" gradientUnits="userSpaceOnUse" gradientTransform="matrix(-365.112,-365.112,260.731,-260.731,430.366,476.134)"><stop offset="0%" style="stop-color:#000;stop-opacity:0"/><stop offset="100%" style="stop-color:#000;stop-opacity:0.701961"/></linearGradient></defs></svg>