<?xml version="1.0" encoding="UTF-8" standalone="no"?>
<!DOCTYPE svg PUBLIC "-//W3C//DTD SVG 1.1//EN" "http://www.w3.org/Graphics/SVG/1.1/DTD/svg11.dtd">
<svg width="100%" height="100%" viewBox="0 0 500 500" version="1.1" xmlns="http://www.w3.org/2000/svg" xmlns:xlink="http://www.w3.org/1999/xlink" xml:space="preserve" style="fill-rule:evenodd;clip-rule:evenodd;stroke-linejoin:round;stroke-miterlimit:1.41421;">
    <g style="filter:url(#_Effect1);">
        <path d="M475,137.5c0,-62.09 -50.41,-112.5 -112.5,-112.5l-225,0c-62.09,0 -112.5,50.41 -112.5,112.5l0,225c0,62.09 50.41,112.5 112.5,112.5l225,0c62.09,0 112.5,-50.41 112.5,-112.5l0,-225Z" style="fill-opacity:0.301961;"/>
    </g>
    <path d="M475,137.5c0,-62.09 -50.41,-112.5 -112.5,-112.5l-225,0c-62.09,0 -112.5,50.41 -112.5,112.5l0,225c0,62.09 50.41,112.5 112.5,112.5l225,0c62.09,0 112.5,-50.41 112.5,-112.5l0,-225Z" style="fill:#2196f3;"/>
    <clipPath id="_clip2">
        <path d="M475,137.5c0,-62.09 -50.41,-112.5 -112.5,-112.5l-225,0c-62.09,0 -112.5,50.41 -112.5,112.5l0,225c0,62.09 50.41,112.5 112.5,112.5l225,0c62.09,0 112.5,-50.41 112.5,-112.5l0,-225Z"/>
    </clipPath>
    <g clip-path="url(#_clip2)">
        <path d="M100,100c0,0 153.682,37.28 200,60.439c50,25 100,89.561 100,89.561l100,101l0,149l-298,0l-102,-100c0,0 71,-100 71,-150c0,-50 -71,-150 -71,-150Z" style="fill-opacity:0;"/>
        <clipPath id="_clip3">
            <path d="M100,100c0,0 153.682,37.28 200,60.439c50,25 100,89.561 100,89.561l100,101l0,149l-298,0l-102,-100c0,0 71,-100 71,-150c0,-50 -71,-150 -71,-150Z"/>
        </clipPath>
        <g clip-path="url(#_clip3)">
            <path d="M-65.112,241.388l365.112,365.112l241.388,-241.388l-365.111,-365.112l-241.389,241.388Z" style="fill:url(#_Linear4);"/>
        </g>
    </g>
    <path d="M100,100c0,0 153.682,37.28 200,60.439c50,25 100,89.561 100,89.561c0,0 -50,67.636 -100,92.636c-46.391,23.195 -200,57.364 -200,57.364c0,0 71,-100 71,-150c0,-50 -71,-150 -71,-150Z" style="fill:#fff;"/>
    <defs>
        <filter id="_Effect1" filterUnits="userSpaceOnUse" x="-65" y="-65" width="630" height="630">
            <feGaussianBlur in="SourceGraphic" stdDeviation="15"/>
        </filter>
        <linearGradient id="_Linear4" x1="0" y1="0" x2="1" y2="0" gradientUnits="userSpaceOnUse" gradientTransform="matrix(-365.112,-365.112,241.388,-241.388,420.694,485.806)"><stop offset="0%" style="stop-color:#000;stop-opacity:0"/><stop offset="45%" style="stop-color:#000;stop-opacity:0.552941"/><stop offset="100%" style="stop-color:#000;stop-opacity:0.701961"/></linearGradient>
    </defs>
</svg>
